<svg width="343" height="287" viewBox="0 0 343 287" fill="none" xmlns="http://www.w3.org/2000/svg">
<g id="empty 1" clip-path="url(#clip0)">
<path id="Vector" opacity="0.1" d="M120.319 281.441C153.363 281.441 180.15 276.015 180.15 269.321C180.15 262.627 153.363 257.2 120.319 257.2C87.2747 257.2 60.4872 262.627 60.4872 269.321C60.4872 276.015 87.2747 281.441 120.319 281.441Z" fill="#6C63FF"/>
<path id="Vector_2" opacity="0.1" d="M199.285 40.4752C177.296 39.6613 156.353 32.0679 136.355 23.7623C116.357 15.4567 96.5486 6.25737 75.086 1.85753C61.2816 -0.972764 45.493 -1.37605 34.3727 6.52986C23.6669 14.1597 20.2082 27.2938 18.3497 39.4906C16.9499 48.6681 16.1277 58.3289 19.9602 66.9215C22.6239 72.8872 27.3465 77.9011 30.615 83.6162C41.9867 103.497 33.948 128.014 21.6284 147.427C15.8525 156.532 9.14226 165.23 4.68123 174.912C0.220195 184.595 -1.84214 195.727 2.06169 205.631C5.92814 215.441 15.1458 222.794 25.1313 227.972C45.4115 238.49 69.2999 241.498 92.6108 243.206C144.196 246.977 196.054 245.346 247.775 243.707C266.917 243.104 286.141 242.49 304.97 239.326C315.428 237.567 326.222 234.777 333.816 228.041C343.451 219.492 345.84 205.017 339.381 194.299C328.549 176.314 298.61 171.849 291.03 152.553C286.864 141.93 291.142 130.1 297.2 120.25C310.192 99.1156 331.967 80.5752 333.112 56.4214C333.901 39.8321 323.433 23.2173 307.247 15.3659C290.282 7.13661 266.754 8.17209 254.244 21.7931C241.35 35.8028 218.702 41.1982 199.285 40.4752Z" fill="#6C63FF"/>
<path id="Vector_3" d="M181.812 131.429L171.405 123.926L176.654 115.57L149.168 113.226L139.291 121.394L126.927 113.982L116.615 115.308L116.493 112.401C116.365 109.371 116.081 106.351 115.64 103.355C115.684 102.446 115.715 101.404 115.712 100.27C115.712 95.4923 115.107 89.1595 112.45 84.9377L113.062 79.0592L108.101 72.7918C108.898 71.095 109.806 69.4607 110.819 67.9015C110.989 67.6399 111.159 67.3856 111.342 67.1385C117.781 66.6408 122.86 60.9802 122.86 54.0589C122.86 53.7392 122.86 53.4194 122.826 53.1033C122.826 52.9762 122.802 52.8454 122.789 52.7182C123.417 53.0815 124.053 53.4449 124.688 53.8082C124.807 53.9899 124.943 54.1715 125.092 54.3859L125.123 54.4258L125.313 54.6765L125.374 54.7528C125.442 54.84 125.514 54.9236 125.585 55.0108L125.633 55.0689C125.813 55.2833 126.003 55.5013 126.207 55.7156C126.231 55.7368 126.254 55.7598 126.275 55.7847L126.53 56.039L126.601 56.108C126.818 56.3151 127.049 56.515 127.28 56.7039L127.355 56.762L127.647 56.9764L127.742 57.0418C127.855 57.1144 127.97 57.1907 128.082 57.2598L128.123 57.2852C128.256 57.3615 128.391 57.4342 128.527 57.5032L128.595 57.5323C128.711 57.5855 128.824 57.6364 128.935 57.6849L129.04 57.7248C129.159 57.7684 129.275 57.8084 129.397 57.8447L129.472 57.8665C129.621 57.9065 129.771 57.9392 129.924 57.9646H129.941C130.085 57.9895 130.23 58.0053 130.376 58.0118H130.474C130.604 58.0191 130.735 58.0191 130.865 58.0118H130.95C131.113 58.0018 131.275 57.9812 131.436 57.9501C132.196 57.8432 132.926 57.5632 133.576 57.129C133.742 57.0106 133.889 56.8646 134.011 56.6966C134.691 55.7447 133.943 54.702 133.943 54.702C133.678 54.0262 131.959 53.5502 131.959 53.5502C131.959 53.5502 126.523 51.1232 126.523 49.1904C126.523 47.2575 125.164 37.2298 111.135 34.9372C111.135 34.9372 102.009 34.3886 99.444 39.6132L99.3896 40.2235C98.6354 40.7286 98.0102 41.7422 97.2661 42.0402C96.9447 42.114 96.6347 42.2363 96.3454 42.4035V42.3344C96.2595 42.4148 96.1891 42.5123 96.1381 42.6215C95.9783 42.9615 95.8825 43.3319 95.8561 43.7114C95.7796 44.1751 95.629 44.6212 95.4111 45.0303C95.3503 45.1465 95.2822 45.2582 95.2072 45.3646V45.3646L95.1494 45.4627C95.5439 45.4955 95.94 45.427 96.3046 45.2628C96.2472 45.7603 96.1331 46.2483 95.9649 46.7161C96.1808 46.7236 96.3943 46.6646 96.5798 46.546C96.7653 46.4275 96.9151 46.2545 97.0113 46.0476V46.0185L97.0555 45.9531C97.1409 45.7849 97.2115 45.6086 97.2661 45.4263L97.2288 45.4699C97.2967 45.2338 97.3579 44.994 97.4326 44.7614C97.4669 44.6305 97.5233 44.5073 97.5991 44.3981C97.6898 44.3004 97.8007 44.2267 97.9228 44.1832C98.045 44.1397 98.175 44.1274 98.3024 44.1474L98.1631 47.2974H98.2243C98.1424 47.5266 98.0424 47.7478 97.9253 47.9587C97.4428 48.7943 96.5662 49.3647 96.2435 50.2803C96.1043 50.7219 96.0511 51.1893 96.0872 51.6537C96.0872 51.9262 96.1178 52.2023 96.1381 52.4748V52.453C96.1857 53.1796 96.1993 53.87 95.8324 54.4549C95.5809 54.8546 95.1766 55.1561 95.0373 55.6103C94.9988 55.7368 94.9815 55.8697 94.9864 56.0027C95.0136 56.4008 95.0913 56.7932 95.2174 57.1689C95.2189 57.1618 95.2189 57.1543 95.2174 57.1471C95.3021 57.4236 95.322 57.718 95.2752 58.0046C95.1223 58.7312 94.2967 59.338 94.3374 60.0319C94.3351 60.1232 94.3477 60.2142 94.3748 60.3008C94.5336 60.6397 94.8087 60.9 95.1427 61.0274C95.6665 61.346 96.2681 61.4878 96.8686 61.4343C97.0937 61.3909 97.3113 61.3112 97.5142 61.1982C97.2763 61.7831 97.0317 62.3608 96.7837 62.9094C96.7463 62.9966 96.7055 63.0838 96.6648 63.171C96.6648 63.171 94.5651 61.6705 93.3725 64.7297C93.0244 65.3654 92.7754 66.0575 92.6352 66.7788C92.5755 67.0674 92.4913 67.3495 92.3838 67.6217C91.8544 68.5802 91.062 69.3413 90.1142 69.8017C87.6815 70.9934 77.8557 84.0985 77.6825 87.4919C77.5974 88.8166 77.388 90.1287 77.0573 91.4085C76.2838 94.4224 76.0851 97.5719 76.4729 100.67C76.5943 101.671 76.7955 102.659 77.0743 103.623C78.1173 107.013 78.8139 113.339 78.8139 113.339L79.9418 124.318C79.9 125.834 79.9613 127.35 80.1253 128.856C78.9735 130.262 74.3494 136.123 76.1162 137.718C77.4752 138.975 79.8535 138.768 81.1888 138.51C80.0642 141.485 78.294 146.659 78.0596 150.212C77.7198 155.47 78.6406 162.435 80.0981 165.109C81.5557 167.783 86.4143 174.642 86.4143 174.642C86.4143 174.642 86.1866 184.052 87.9228 187.471C89.6589 190.89 90.3588 197.982 90.3588 197.982C90.3588 197.982 91.9795 203.97 91.1675 206.171C90.3554 208.373 92.6726 210.204 90.2399 211.669C87.8073 213.133 84.6951 246.133 84.6951 246.133C84.6951 246.133 83.4414 267.762 84.6951 268.863C84.7622 268.915 84.8339 268.96 84.9091 268.997V276.264C84.9091 276.264 84.0393 277.79 87.5762 278.099C89.9987 278.306 96.8652 278.774 100.939 279.047L104.095 279.258C104.095 279.258 111.57 280.849 114.872 279.258C118.175 277.666 124.029 277.703 123.159 273.499C123.044 272.927 122.889 272.365 122.697 271.817C121.742 269.208 120.122 268.91 117.135 268.183C116.962 268.143 116.795 268.107 116.643 268.078C113.496 267.493 112.464 269.059 110.7 267.021C109.168 265.259 104.289 263.286 102.628 262.661C102.668 262.53 102.719 262.403 102.76 262.269C102.29 262.183 101.852 261.955 101.5 261.611L106.001 261.916L108.682 262.094C108.682 262.094 115.036 263.449 117.856 262.094C120.676 260.739 125.636 260.775 124.895 257.204C124.798 256.717 124.667 256.239 124.505 255.772C123.693 253.556 122.313 253.313 119.775 252.699C119.629 252.666 119.493 252.633 119.357 252.608C116.683 252.11 115.807 253.44 114.308 251.71C113.024 250.235 108.971 248.582 107.513 248.019C107.513 247.212 106.494 246.064 105.852 244.913C105.098 243.568 106.491 238.863 106.491 238.863L107.286 219.342C107.588 219.198 107.909 219.1 108.237 219.051C108.237 219.051 111.832 215.382 111.02 211.472C110.854 210.29 110.768 209.096 110.761 207.901C111.944 206.727 113.571 204.994 114.033 203.926C114.787 202.186 114.033 193.753 114.033 193.753V161.508L120.047 162.158L125.503 162.758L127.165 162.94L132.621 163.528L145.162 164.883L156.462 162.594L161.351 161.606L171.405 159.572V133.267L181.812 131.429ZM99.0431 44.2637L98.3432 44.1838C98.5742 44.1947 98.8188 44.2419 99.0431 44.2637Z" fill="url(#paint0_linear)"/>
<path id="Vector_4" d="M157.42 148.508C154.023 153.708 141.808 150.954 141.808 150.954L132.343 141.482L131.069 140.199L133.206 135.345C133.206 135.345 133.885 135.545 135.051 135.901C141.17 137.801 160.288 144.138 157.42 148.508Z" fill="#EFB7B9"/>
<path id="Vector_5" opacity="0.1" d="M135.044 135.901C134.626 137.456 133.481 139.785 132.343 141.482L131.069 140.199L133.206 135.345C133.206 135.345 133.892 135.545 135.044 135.901Z" fill="black"/>
<path id="Vector_6" d="M102.58 81.1628C102.58 81.1628 93.8549 85.3011 94.283 95.4632C94.5911 102.01 95.2581 108.532 96.2808 114.995C96.2808 114.995 94.4971 130.288 101.924 134.23C109.351 138.172 116.225 141.413 116.225 141.413C116.225 141.413 127.844 142.75 129.288 143.302C130.732 143.854 135.244 135.411 134.412 134.095C133.58 132.78 122.915 130.023 121.555 127.828C120.196 125.634 117.054 124.278 117.054 124.278C117.054 124.278 113.809 122.178 113.588 120.282C113.367 118.385 114.223 116.972 114.441 116.14C114.658 115.308 115.209 107.275 115.209 107.275C115.209 107.275 118.871 78.6813 102.58 81.1628Z" fill="#DCE6F2"/>
<path id="Vector_7" opacity="0.1" d="M108.339 114.578C108.339 114.578 96.3691 116.721 97.5277 121.201C97.5277 121.201 101.873 116.365 108.339 114.578Z" fill="black"/>
<path id="Vector_8" opacity="0.1" d="M108.431 116.391C108.431 116.391 101.849 122.135 103.137 122.429C104.425 122.723 108.431 116.391 108.431 116.391Z" fill="black"/>
<path id="Vector_9" opacity="0.1" d="M111.594 118.393C111.594 118.393 109.83 122.255 110.914 121.993C111.998 121.731 111.594 118.393 111.594 118.393Z" fill="black"/>
<path id="Vector_10" opacity="0.1" d="M135.486 136.312L134.758 136.09C134.966 135.363 135.024 134.775 134.854 134.502C134.021 133.187 123.363 130.433 122.007 128.235C120.652 126.037 117.506 124.685 117.506 124.685C117.506 124.685 114.261 122.585 114.04 120.689C113.819 118.792 114.675 117.379 114.893 116.547C115.11 115.715 115.661 107.678 115.661 107.678C115.661 107.678 119.313 79.0882 103.022 81.5697C103.022 81.5697 94.2966 85.7116 94.7213 95.8738C95.0295 102.421 95.6977 108.943 96.7225 115.406C96.7225 115.406 94.9388 130.698 102.366 134.64C109.793 138.582 116.666 141.823 116.666 141.823C116.666 141.823 128.283 143.157 129.73 143.713C130.277 143.923 131.266 142.837 132.234 141.344L132.784 141.892L142.25 151.36C142.25 151.36 154.464 154.118 157.862 148.919C160.733 144.545 141.618 138.208 135.486 136.312Z" fill="black"/>
<path id="Vector_11" d="M97.5583 43.0211C97.2257 43.0907 96.9071 43.2222 96.6172 43.4099C96.2774 43.7114 96.2774 44.2274 96.1925 44.6779C96.0927 45.3046 95.8603 45.8986 95.513 46.4146C95.8996 46.4449 96.2874 46.3764 96.6444 46.2147C96.5862 46.712 96.4721 47.2 96.3046 47.668C96.5163 47.6738 96.7251 47.6141 96.9059 47.4962C97.0866 47.3783 97.2318 47.2071 97.3239 47.0031C97.5037 46.5937 97.6459 46.1666 97.7486 45.7279C97.7805 45.5966 97.8359 45.4733 97.9117 45.3646C98.2242 44.9685 98.8052 45.1466 99.2877 45.1974C99.6892 45.2336 100.092 45.1544 100.456 44.9678C100.819 44.7813 101.129 44.4943 101.353 44.1365C101.866 43.3045 101.897 41.1754 100.674 40.9502C99.3964 40.7249 98.6014 42.6069 97.5583 43.0211Z" fill="#965D7B"/>
<g id="Group" opacity="0.1">
<path id="Vector_12" opacity="0.1" d="M96.5832 43.8568C96.6138 43.6787 96.6342 43.4934 96.6715 43.3154C96.3488 43.617 96.3318 44.1293 96.2468 44.5834C96.204 44.8454 96.1369 45.1023 96.0464 45.35C96.3139 44.8941 96.4962 44.3869 96.5832 43.8568V43.8568Z" fill="black"/>
<path id="Vector_13" opacity="0.1" d="M96.6919 46.8578C96.8611 46.3903 96.9752 45.9021 97.0317 45.4045C96.6915 45.5576 96.3232 45.626 95.9547 45.6043C95.8474 45.8599 95.7165 46.1033 95.5639 46.331C95.9492 46.3629 96.336 46.2956 96.6919 46.1348C96.6355 46.6324 96.5214 47.1206 96.3522 47.5881C96.5638 47.5934 96.7724 47.5335 96.9531 47.4157C97.1338 47.2978 97.279 47.1268 97.3714 46.9232C97.4561 46.7581 97.5244 46.5839 97.5753 46.4037C97.4756 46.5526 97.3424 46.6724 97.188 46.7517C97.0336 46.8311 96.863 46.8676 96.6919 46.8578V46.8578Z" fill="black"/>
<path id="Vector_14" opacity="0.1" d="M99.675 44.3872C99.1926 44.3363 98.6082 44.1583 98.2956 44.5543C98.2212 44.6639 98.1659 44.787 98.1325 44.9177C98.1019 45.0121 98.0747 45.1102 98.051 45.2083C98.3737 44.9358 98.897 45.0812 99.3352 45.1284C99.7366 45.1634 100.14 45.0836 100.503 44.8972C100.866 44.7108 101.176 44.4244 101.401 44.0675C101.504 43.8911 101.581 43.6986 101.629 43.4971C101.396 43.805 101.096 44.0472 100.756 44.2024C100.415 44.3576 100.044 44.4211 99.675 44.3872Z" fill="black"/>
</g>
<path id="Vector_15" d="M107.785 73.028L112.966 79.6913L112.29 86.4165L106.029 75.9346L107.785 73.028Z" fill="#DCE6F2"/>
<path id="Vector_16" opacity="0.1" d="M112.963 79.6913L112.328 86.0168L112.287 86.4165L106.637 76.9555L106.029 75.9346L106.205 75.6403L107.782 73.028L108.132 73.4785L112.963 79.6913Z" fill="black"/>
<path id="Vector_17" d="M115.654 64.0067C113.901 64.5444 112.226 66.3901 110.768 68.6318C109.783 70.1785 108.902 71.7981 108.132 73.4785C107.653 74.5031 107.231 75.4877 106.881 76.3451L106.637 76.9555C106.045 78.4488 105.716 79.4479 105.716 79.4479C105.716 79.4479 92.2955 68.6572 94.4189 67.9306C95.1324 67.6871 96.0702 66.0522 96.9977 63.9921L97.1132 63.7305C97.701 62.408 98.2786 60.933 98.7916 59.5451C99.8415 56.693 100.62 54.2151 100.62 54.2151C100.62 54.2151 121.005 62.3717 115.654 64.0067Z" fill="#EFB7B9"/>
<path id="Vector_18" d="M123.682 53.6084C123.682 53.6084 126.781 59.6032 130.943 58.7857C135.105 57.9682 133.393 55.5667 133.393 55.5667L123.682 53.6084Z" fill="#444053"/>
<path id="Vector_19" d="M117.679 261.12C114.934 262.461 108.726 261.12 108.726 261.12L106.11 260.946C102.712 260.714 97.0249 260.321 95.0135 260.147C92.078 259.889 92.7983 258.603 92.7983 258.603V250.831L107.041 246.973C107.041 246.973 112.671 249.033 114.213 250.831C115.678 252.546 116.534 251.227 119.147 251.721C119.276 251.747 119.412 251.776 119.554 251.812C122.035 252.419 123.38 252.659 124.175 254.857C124.335 255.319 124.463 255.792 124.559 256.274C125.293 259.813 120.421 259.787 117.679 261.12Z" fill="#A36468"/>
<path id="Vector_20" opacity="0.1" d="M124.175 254.857C123.665 255.198 123.128 255.492 122.571 255.736C120.703 256.648 118.926 257.76 117.037 258.621C115.148 259.482 113.112 260.096 111.067 259.932C109.997 259.849 108.903 259.569 107.88 259.896C107.248 260.157 106.652 260.511 106.11 260.946C102.712 260.714 97.0249 260.321 95.0135 260.147C92.078 259.889 92.7983 258.603 92.7983 258.603V257.694C92.9036 257.694 93.0225 257.662 93.1585 257.651C93.8616 257.639 94.5617 257.75 95.231 257.981C96.7055 258.41 98.1733 258.832 99.6478 259.253C99.7691 258.764 99.9823 258.306 100.274 257.907C100.566 257.509 100.931 257.178 101.347 256.935C102.188 256.457 103.133 256.225 104.085 256.263C106.372 256.296 108.536 257.455 110.819 257.571C111.457 257.634 112.1 257.518 112.684 257.237C112.997 257.069 113.272 256.826 113.578 256.641C114.067 256.388 114.584 256.201 115.117 256.085C116.614 255.686 118.084 255.179 119.517 254.566C119.925 254.395 120.4 254.087 120.346 253.621C120.275 253.004 119.367 252.931 119.13 252.364C119.088 252.262 119.068 252.151 119.073 252.039C119.078 251.928 119.106 251.819 119.157 251.721C119.286 251.747 119.422 251.776 119.564 251.812C122.035 252.419 123.38 252.659 124.175 254.857Z" fill="black"/>
<path id="Vector_21" d="M114.777 278.124C111.55 279.701 104.245 278.124 104.245 278.124L101.17 277.931C97.188 277.659 90.4811 277.205 88.113 276.99C84.6577 276.685 85.5071 275.174 85.5071 275.174V266.014L102.267 261.473C102.267 261.473 108.893 263.896 110.707 266.014C112.43 268.031 113.425 266.479 116.513 267.061C116.666 267.09 116.826 267.126 116.993 267.166C119.911 267.893 121.494 268.165 122.429 270.752C122.618 271.295 122.769 271.853 122.881 272.42C123.723 276.584 118.005 276.551 114.777 278.124Z" fill="#A36468"/>
<path id="Vector_22" opacity="0.1" d="M122.422 270.752C121.822 271.153 121.191 271.5 120.536 271.788C118.338 272.859 116.245 274.167 114.023 275.181C111.801 276.195 109.406 276.914 106.997 276.725C105.74 276.627 104.452 276.289 103.259 276.682C102.512 276.993 101.809 277.413 101.17 277.931C97.188 277.659 90.4811 277.205 88.113 276.99C84.6577 276.685 85.5071 275.174 85.5071 275.174V274.106C85.6477 274.081 85.7895 274.064 85.9318 274.055C86.7595 274.039 87.5839 274.17 88.3712 274.444L93.5661 275.94C93.7109 275.363 93.9642 274.823 94.3106 274.354C94.657 273.885 95.0893 273.496 95.5809 273.212C96.5712 272.647 97.6839 272.374 98.8052 272.42C101.496 272.46 104.041 273.822 106.728 273.96C107.477 274.033 108.23 273.899 108.916 273.572C109.287 273.372 109.596 273.085 109.97 272.87C110.544 272.569 111.153 272.35 111.781 272.216C113.533 271.744 115.254 271.146 116.931 270.429C117.41 270.225 117.971 269.862 117.906 269.317C117.822 268.59 116.755 268.503 116.473 267.835C116.425 267.714 116.404 267.583 116.409 267.453C116.415 267.322 116.449 267.194 116.507 267.079C116.66 267.108 116.819 267.144 116.986 267.184C119.904 267.882 121.488 268.165 122.422 270.752Z" fill="black"/>
<path id="Vector_23" d="M107.472 215.273L106.565 238.1C106.565 238.1 105.206 242.762 105.944 244.095C106.681 245.429 107.924 246.758 107.472 247.547C107.021 248.335 101.584 256.859 99.8279 253.589C98.0713 250.319 96.3386 236.149 96.3386 236.149L97.9592 218.648L107.472 215.273Z" fill="#444053"/>
<path id="Vector_24" d="M111.407 158.398L113.928 162.002V193.35C113.928 193.35 114.665 201.706 113.928 203.432C113.191 205.158 109.453 208.609 109.453 208.609L106.31 191.352L106.99 173.095L111.407 158.398Z" fill="#444053"/>
<path id="Vector_25" opacity="0.1" d="M107.472 215.273L106.565 238.1C106.565 238.1 105.206 242.762 105.944 244.095C106.681 245.429 107.924 246.758 107.472 247.547C107.021 248.335 101.584 256.859 99.8279 253.589C98.0713 250.319 96.3386 236.149 96.3386 236.149L97.9592 218.648L107.472 215.273Z" fill="black"/>
<path id="Vector_26" opacity="0.1" d="M111.407 158.398L113.928 162.002V193.35C113.928 193.35 114.665 201.706 113.928 203.432C113.191 205.158 109.453 208.609 109.453 208.609L106.31 191.352L106.99 173.095L111.407 158.398Z" fill="black"/>
<path id="Vector_27" d="M113.928 145.028V161.984L111.098 175.184C111.098 175.184 110.191 207.036 110.982 210.909C111.774 214.782 108.264 218.419 108.264 218.419C108.264 218.419 106.226 218.663 106.226 220.356C106.226 222.049 102.828 226.895 102.828 226.895L102.94 236.342C102.94 236.342 104.415 254.025 102.148 257.415C99.8823 260.804 102.94 261.291 102.94 261.291C100.11 271.221 86.5196 268.921 85.293 267.831C84.0665 266.741 85.293 245.305 85.293 245.305C85.293 245.305 88.3305 212.606 90.7088 211.153C93.0871 209.699 90.8243 207.883 91.616 205.703C92.4076 203.523 90.8243 197.59 90.8243 197.59C90.8243 197.59 90.1448 190.563 88.446 187.173C86.7472 183.783 86.9715 174.457 86.9715 174.457C86.9715 174.457 82.2148 167.674 80.8014 165.011C79.388 162.347 78.4775 155.444 78.8172 150.234C79.0483 146.714 80.7777 141.587 81.8751 138.637C82.4017 137.224 82.7822 136.308 82.7822 136.308L83.105 136.399L101.663 141.594L113.928 145.028Z" fill="#444053"/>
<path id="Vector_28" opacity="0.1" d="M115.654 64.0067C113.901 64.5444 112.226 66.3901 110.768 68.6318H110.388C108.251 68.6334 106.152 68.0319 104.303 66.888C102.453 65.7442 100.919 64.0985 99.8551 62.1174C99.4104 61.2965 99.0526 60.4252 98.7882 59.5196C99.8381 56.6675 100.616 54.1897 100.616 54.1897C100.616 54.1897 121.005 62.3717 115.654 64.0067Z" fill="black"/>
<path id="Vector_29" d="M122.534 54.9236C122.537 56.9115 122.113 58.8737 121.295 60.659C120.478 62.4442 119.287 64.0049 117.817 65.2207C116.346 66.4366 114.634 67.2753 112.812 67.6721C110.99 68.0689 109.108 68.0132 107.31 67.5095C105.511 67.0057 103.845 66.0672 102.439 64.7663C101.034 63.4655 99.9258 61.8369 99.2014 60.0061C98.477 58.1752 98.1552 56.191 98.2609 54.2063C98.3666 52.2215 98.8969 50.2892 99.8109 48.5582C100.179 47.8548 100.609 47.1905 101.095 46.5744C101.896 45.5537 102.838 44.6692 103.888 43.9512C105.661 42.7461 107.697 42.0536 109.795 41.9412C111.894 41.8289 113.984 42.3006 115.861 43.3103C117.738 44.3199 119.338 45.833 120.505 47.7017C121.671 49.5704 122.365 51.7307 122.517 53.9717C122.524 54.2914 122.534 54.6075 122.534 54.9236Z" fill="#EFB7B9"/>
<path id="Vector_30" opacity="0.1" d="M112.328 86.0168L112.287 86.4165L106.637 76.97C106.045 78.4633 105.716 79.4624 105.716 79.4624C105.716 79.4624 92.2955 68.6572 94.4189 67.9306C95.1324 67.6871 96.0702 66.0522 96.9977 63.9921L97.1132 63.7305C98.0985 66.8697 103.823 73.1442 106.205 75.6584C106.48 75.9491 106.708 76.1889 106.885 76.3633L107.248 76.7266L107.438 76.9301C108.305 77.8856 111.961 82.1002 112.328 86.0168Z" fill="black"/>
<path id="Vector_31" d="M116.551 118.069L115.932 139.349L115.824 143.138C115.824 143.138 108.499 142.412 101.663 141.613C96.1585 140.969 90.9704 140.276 90.172 139.869C89.1527 139.356 86.968 138.96 85.2455 138.71C83.9136 138.517 82.8671 138.415 82.8671 138.415C82.8671 138.415 82.4764 138.539 81.875 138.655C80.5636 138.909 78.26 139.117 76.918 137.87C75.2022 136.275 79.7108 130.48 80.8354 129.089L81.0834 128.787L80.6587 124.591L79.5545 113.709C79.5545 113.709 78.875 107.442 77.8557 104.081C77.5832 103.126 77.3866 102.147 77.2679 101.156C76.8892 98.087 77.0832 94.9677 77.8387 91.9789C78.1615 90.7089 78.3664 89.408 78.4503 88.095C78.6202 84.7343 88.2183 71.7455 90.5967 70.5647C91.6665 70.0311 92.5274 69.1131 93.0293 67.9705C93.195 67.6113 93.3194 67.2319 93.3997 66.8406C94.4189 62.1174 96.9977 63.9921 96.9977 63.9921C97.6195 67.6871 107.245 77.4678 107.245 77.4678L107.435 77.6713C108.39 78.7176 112.644 83.6298 112.341 87.8225C112.281 89.383 112.499 90.9416 112.983 92.4149C114.941 99.0073 116.067 105.85 116.33 112.761L116.551 118.069Z" fill="#DCE6F2"/>
<path id="Vector_32" opacity="0.1" d="M102.913 92.8C102.913 92.8 100.535 98.9765 98.7509 99.9757C96.9671 100.975 103.762 102.083 102.913 92.8Z" fill="black"/>
<path id="Vector_33" opacity="0.1" d="M104.697 104.336C104.697 104.336 99.2605 105.062 99.2605 106.152C99.2605 107.242 104.697 104.336 104.697 104.336Z" fill="black"/>
<path id="Vector_34" opacity="0.1" d="M110.388 111.42C110.388 111.42 102.488 129.405 100.28 129.95C98.0714 130.495 110.388 111.42 110.388 111.42Z" fill="black"/>
<path id="Vector_35" opacity="0.1" d="M107.095 78.3797L100.562 81.4171L92.676 68.679C92.8417 68.3197 92.966 67.9403 93.0463 67.5491C94.0656 62.8259 96.6443 64.7006 96.6443 64.7006C97.2661 68.3956 106.891 78.1763 106.891 78.1763L107.095 78.3797Z" fill="black"/>
<path id="Vector_36" d="M107.435 77.6531L100.902 80.6905L93.0157 67.9524C93.1814 67.5931 93.3058 67.2137 93.3861 66.8224C94.4054 62.0992 96.9841 63.974 96.9841 63.974C97.6059 67.669 107.231 77.4496 107.231 77.4496L107.435 77.6531Z" fill="#DCE6F2"/>
<path id="Vector_37" opacity="0.1" d="M115.824 143.139C115.824 143.139 108.499 142.412 101.663 141.613L113.928 145.046V149.043C113.391 149.562 112.926 149.831 112.623 149.693C111.21 149.057 99.675 147.059 99.675 147.059C99.675 147.059 92.975 143.426 85.7449 139.066C85.5694 138.962 85.3993 138.848 85.2353 138.724C84.3923 138.112 83.6658 137.334 83.0948 136.432C81.7595 134.364 81.1072 131.708 80.8252 129.103C80.6667 127.61 80.6076 126.107 80.6485 124.605C80.6836 122.902 80.8289 121.204 81.0834 119.522C80.3842 113.01 80.0439 106.459 80.0642 99.903C80.1491 89.73 89.0678 86.0967 89.0678 86.0967C105.461 84.5526 100.378 112.892 100.378 112.892C100.378 112.892 99.4304 120.885 99.1722 121.702C98.914 122.52 97.9864 123.882 98.1121 125.79C98.2378 127.697 101.37 129.979 101.37 129.979C101.37 129.979 104.428 131.512 105.689 133.783C106.606 135.458 112.565 137.729 115.932 139.349L115.824 143.139Z" fill="black"/>
<path id="Vector_38" opacity="0.1" d="M121.314 46.8578C121.321 47.4562 121.205 48.0489 120.974 48.5945C120.8 49.0397 120.598 49.4718 120.37 49.8879C120.012 50.6534 119.505 51.3275 118.882 51.8644C118.097 52.4639 117.105 52.631 116.164 52.8744C115.222 53.1179 114.244 53.5066 113.707 54.3641C113.416 54.9153 113.222 55.5185 113.133 56.1443C113.043 56.7696 112.809 57.3613 112.453 57.8665C112.268 58.1132 112.011 58.287 111.723 58.3606C111.436 58.4343 111.133 58.4036 110.863 58.2734C110.579 58.0686 110.364 57.772 110.248 57.4269C109.861 56.4931 109.762 55.4577 109.606 54.4513C109.45 53.4449 109.229 52.4094 108.651 51.5992C108.074 50.789 107.051 50.2549 106.144 50.571C105.84 50.696 105.563 50.8853 105.33 51.1275C105.096 51.3697 104.911 51.6599 104.785 51.9807C104.534 52.6228 104.361 53.2969 104.272 53.9862C103.851 56.452 103.353 58.9032 102.78 61.3399C102.763 61.4398 102.725 61.5341 102.668 61.616C102.578 61.7123 102.456 61.767 102.329 61.7686C101.567 61.8776 100.837 61.3072 100.069 61.3689C99.99 61.3746 99.9115 61.388 99.8347 61.4089C98.5932 59.1017 98.045 56.4421 98.2644 53.7905C98.4838 51.1389 99.4602 48.6236 101.061 46.5853L101.122 46.5671C101.633 46.3732 102.097 46.0605 102.481 45.6516C102.972 45.1267 103.426 44.5645 103.84 43.9694L104.112 43.6061C104.893 42.6 105.783 41.6963 106.762 40.9138C107.03 40.6796 107.337 40.502 107.666 40.3906C107.948 40.3319 108.237 40.3221 108.522 40.3616C109.696 40.5122 110.879 40.5596 112.059 40.5033C112.882 40.365 113.711 40.2752 114.543 40.2344C116.694 40.2998 118.528 41.9239 119.887 43.7042C120.618 44.6161 121.27 45.6661 121.314 46.8578Z" fill="black"/>
<path id="Vector_39" d="M98.2242 48.9033C97.752 49.7317 96.8992 50.2949 96.5798 51.2032C96.1109 52.522 96.9026 54.1642 96.1755 55.3414C95.9343 55.7374 95.5368 56.0317 95.4008 56.4859C95.1698 57.2525 95.8018 58.07 95.6387 58.8584C95.4756 59.6468 94.5039 60.3117 94.7621 61.0819C94.9147 61.4178 95.1824 61.678 95.5096 61.8086C96.0244 62.1244 96.6169 62.265 97.2084 62.2119C98.1359 62.0484 98.8256 61.0746 99.7668 61.002C100.531 60.9439 101.262 61.5106 102.023 61.4053C102.15 61.4005 102.272 61.3448 102.363 61.249C102.42 61.1681 102.459 61.0733 102.475 60.9729C103.045 58.5387 103.544 56.0874 103.97 53.6193C104.056 52.9297 104.228 52.2554 104.479 51.6137C104.606 51.2936 104.792 51.004 105.025 50.7619C105.259 50.5198 105.535 50.3301 105.838 50.204C106.745 49.8916 107.765 50.422 108.346 51.2322C108.927 52.0424 109.147 53.0779 109.304 54.0843C109.46 55.0907 109.559 56.1262 109.943 57.0599C110.059 57.4062 110.276 57.704 110.561 57.9101C111.071 58.2262 111.757 57.9755 112.148 57.5032C112.506 56.9978 112.739 56.4044 112.827 55.7774C112.916 55.1527 113.11 54.5506 113.401 54.0007C113.938 53.1433 114.92 52.7545 115.858 52.5111C116.795 52.2677 117.784 52.0969 118.576 51.4975C119.198 50.9611 119.705 50.2884 120.064 49.5246C120.567 48.5872 121.036 47.5699 120.995 46.4909C120.951 45.3137 120.298 44.2637 119.602 43.3481C118.243 41.5678 116.405 39.9438 114.254 39.882C113.422 39.9192 112.593 40.009 111.77 40.1509C110.59 40.2076 109.407 40.159 108.234 40.0055C107.948 39.969 107.659 39.9801 107.377 40.0382C107.047 40.146 106.741 40.324 106.477 40.5614C105.496 41.3426 104.606 42.2451 103.823 43.25C103.319 43.9652 102.772 44.6448 102.186 45.2846C101.802 45.6942 101.338 46.0081 100.827 46.2038C100.487 46.3056 100.147 46.2329 99.8245 46.3455C98.8222 46.6834 98.6897 48.0822 98.2242 48.9033Z" fill="#965D7B"/>
<path id="Vector_40" opacity="0.1" d="M130.943 58.7821C128.225 59.3162 125.972 56.9655 124.725 55.2506C124.342 54.7298 123.994 54.181 123.682 53.6084L133.012 55.4904L133.389 55.5667C133.389 55.5667 135.105 57.9682 130.943 58.7821Z" fill="black"/>
<g id="Group_2" opacity="0.1">
<path id="Vector_41" opacity="0.1" d="M95.6378 57.8193C95.6758 57.3441 95.6084 56.8661 95.4414 56.4241C95.4414 56.4605 95.4109 56.4968 95.4007 56.5331C95.255 57.02 95.4515 57.525 95.5769 58.03C95.6038 57.9622 95.6242 57.8916 95.6378 57.8193V57.8193Z" fill="black"/>
<path id="Vector_42" opacity="0.1" d="M96.4473 51.8717C96.4124 52.3741 96.4215 52.8789 96.4744 53.3795C96.5091 52.8771 96.5 52.3723 96.4473 51.8717Z" fill="black"/>
<path id="Vector_43" opacity="0.1" d="M120.044 48.4746C119.686 49.24 119.178 49.9142 118.555 50.4511C117.771 51.0506 116.782 51.2177 115.837 51.4611C114.893 51.7045 113.918 52.0933 113.381 52.9507C113.09 53.5022 112.896 54.1054 112.807 54.731C112.718 55.3579 112.485 55.9511 112.127 56.4568C111.736 56.9291 111.05 57.1835 110.541 56.8637C110.255 56.6576 110.039 56.3599 109.922 56.0136C109.538 55.0798 109.436 54.048 109.283 53.0379C109.131 52.0279 108.903 50.9961 108.325 50.1859C107.748 49.3756 106.725 48.8416 105.818 49.1577C105.515 49.2832 105.238 49.4727 105.004 49.7149C104.771 49.957 104.585 50.2469 104.459 50.5673C104.207 51.209 104.036 51.8833 103.949 52.5729C103.526 55.0411 103.027 57.4923 102.454 59.9266C102.438 60.027 102.4 60.1217 102.342 60.2027C102.251 60.2984 102.13 60.3542 102.002 60.3589C101.241 60.4643 100.511 59.8975 99.7464 59.9556C98.8052 60.0283 98.1155 61.002 97.188 61.1619C96.5963 61.2186 96.0028 61.0777 95.4892 60.7586C95.253 60.6499 95.0411 60.4889 94.8674 60.2863C94.7879 60.408 94.7353 60.5474 94.7135 60.6941C94.6918 60.8407 94.7014 60.9907 94.7417 61.1328C94.8914 61.471 95.1601 61.7323 95.4892 61.8594C96.0028 62.1786 96.5963 62.3195 97.188 62.2627C98.1155 62.1029 98.8052 61.1292 99.7464 61.0565C100.511 60.9984 101.241 61.5651 102.002 61.4598C102.13 61.455 102.251 61.3993 102.342 61.3036C102.4 61.2226 102.438 61.1278 102.454 61.0274C103.025 58.6053 103.523 56.154 103.949 53.6738C104.036 52.9842 104.207 52.3099 104.459 51.6682C104.585 51.3478 104.771 51.0579 105.004 50.8157C105.238 50.5736 105.515 50.3841 105.818 50.2585C106.725 49.9424 107.744 50.4765 108.325 51.2867C108.906 52.0969 109.127 53.1324 109.283 54.1388C109.44 55.1452 109.538 56.1807 109.922 57.1144C110.039 57.4607 110.255 57.7585 110.541 57.9646C111.05 58.2807 111.736 58.03 112.127 57.5577C112.485 57.052 112.718 56.4587 112.807 55.8319C112.896 55.2062 113.09 54.6031 113.381 54.0516C113.918 53.1942 114.9 52.809 115.837 52.562C116.775 52.3149 117.764 52.1514 118.555 51.552C119.178 51.015 119.686 50.3409 120.044 49.5755C120.546 48.6417 121.015 47.6244 120.975 46.5454C120.968 46.4066 120.954 46.2684 120.934 46.1312C120.77 46.9627 120.468 47.7563 120.044 48.4746V48.4746Z" fill="black"/>
</g>
<path id="Vector_44" opacity="0.1" d="M120.988 48.5836C121.859 50.2402 122.376 52.083 122.5 53.979C119.473 52.1623 116.626 50.1677 115.188 49.4737C112.684 48.2639 103.321 48.4455 99.8007 48.5582C100.169 47.8548 100.599 47.1906 101.085 46.5744C101.889 45.5528 102.835 44.6683 103.888 43.9512C105.283 43.0044 106.844 42.3717 108.476 42.0919C110.108 41.8121 111.775 41.8911 113.377 42.324C114.98 42.7569 116.482 43.5346 117.794 44.6096C119.105 45.6847 120.198 47.0344 121.005 48.5763L120.988 48.5836Z" fill="black"/>
<path id="Vector_45" opacity="0.1" d="M131.792 57.2416C130.158 57.7793 127.491 56.7402 124.725 55.2506C124.342 54.7298 123.994 54.181 123.682 53.6084L133.012 55.4904C133.631 55.9409 133.787 56.584 131.792 57.2416Z" fill="black"/>
<path id="Vector_46" d="M111.111 35.9872C111.111 35.9872 102.193 35.4422 99.6852 40.6196L99.2809 45.2083L98.6014 45.1284L98.4655 48.2494C98.4655 48.2494 112.097 47.6135 115.199 49.1104C118.301 50.6073 127.94 58.1499 131.803 56.8783C135.666 55.6066 131.463 54.4258 131.463 54.4258C131.463 54.4258 126.146 52.017 126.146 50.1277C126.146 48.2385 124.827 38.258 111.111 35.9872Z" fill="#444053"/>
<path id="Vector_47" opacity="0.1" d="M93.9093 206.095C93.9093 206.095 99.6003 211.999 102.064 211.545C102.064 211.545 95.0985 210.909 93.9093 206.095Z" fill="black"/>
<path id="Vector_48" opacity="0.1" d="M92.7202 208.831C92.7202 208.831 93.2298 211.868 94.5888 211.57C95.9479 211.272 92.7202 208.831 92.7202 208.831Z" fill="black"/>
<path id="Vector_49" opacity="0.1" d="M101.639 259.595C101.639 259.595 93.5594 266.316 94.9218 266.498C96.2842 266.679 101.639 259.595 101.639 259.595Z" fill="black"/>
<path id="Vector_50" d="M112.447 126.193L138.608 121.641V148.127L113.751 146.735L112.447 126.193Z" fill="#6C63FF"/>
<path id="Vector_51" opacity="0.05" d="M112.447 126.193L138.608 121.641V148.127L113.751 146.735L112.447 126.193Z" fill="black"/>
<path id="Vector_52" d="M138.608 121.641L169.981 124.151L168.245 147.2L138.608 148.127V121.641Z" fill="#6C63FF"/>
<path id="Vector_53" opacity="0.1" d="M138.608 121.641L169.981 124.151L168.245 147.2L138.608 148.127V121.641Z" fill="black"/>
<path id="Vector_54" d="M148.254 113.557L138.608 121.641L169.981 124.151L175.108 115.878L148.254 113.557Z" fill="#6C63FF"/>
<path id="Vector_55" d="M102.974 117.364L126.526 114.298L138.608 121.641L112.447 126.193L102.974 117.364Z" fill="#6C63FF"/>
<path id="Vector_56" d="M144.343 128.518V164.731L132.088 163.387L126.757 162.805L125.133 162.624L119.806 162.039L112.447 161.232V126.193L138.605 128.097L144.343 128.518Z" fill="#6C63FF"/>
<path id="Vector_57" d="M169.981 124.151V159.466L160.159 161.483L155.382 162.464L144.343 164.731V128.518L169.981 124.151Z" fill="#6C63FF"/>
<path id="Vector_58" opacity="0.05" d="M169.981 124.151V159.466L160.159 161.483L155.382 162.464L144.343 164.731V128.518L169.981 124.151Z" fill="black"/>
<path id="Vector_59" d="M102.974 133.816L112.447 126.193L144.343 128.518L139.648 136.977L102.974 133.816Z" fill="#6C63FF"/>
<path id="Vector_60" opacity="0.1" d="M102.974 133.816L112.447 126.193L144.343 128.518L139.648 136.977L102.974 133.816Z" fill="white"/>
<path id="Vector_61" d="M169.981 124.151L144.343 128.518L152.688 136.511L180.15 131.585L169.981 124.151Z" fill="#6C63FF"/>
<path id="Vector_62" opacity="0.1" d="M169.981 124.151L144.343 128.518L152.688 136.511L180.15 131.585L169.981 124.151Z" fill="white"/>
<path id="Vector_63" opacity="0.1" d="M160.159 161.483L155.382 162.464V154.917L159.856 153.711L160.159 161.483Z" fill="white"/>
<path id="Vector_64" opacity="0.1" d="M132.088 158.394V163.387L126.757 162.805V158.394H132.088Z" fill="white"/>
<path id="Vector_65" opacity="0.1" d="M125.133 159.968V162.624L119.806 162.039V159.968H125.133Z" fill="white"/>
<path id="Vector_66" opacity="0.1" d="M141.136 155.746C137.483 160.742 125.422 157.29 125.422 157.29L116.459 147.291L115.243 145.936L117.621 141.213C117.621 141.213 118.301 141.453 119.435 141.874C125.442 144.119 144.211 151.542 141.136 155.746Z" fill="black"/>
<path id="Vector_67" d="M140.796 155.019C137.144 160.015 125.082 156.563 125.082 156.563L116.119 146.565L114.903 145.209L117.281 140.486C117.281 140.486 117.961 140.726 119.096 141.147C125.103 143.393 143.871 150.816 140.796 155.019Z" fill="#EFB7B9"/>
<path id="Vector_68" opacity="0.1" d="M119.082 141.147C118.586 142.673 117.325 144.933 116.106 146.565L114.889 145.209L117.268 140.486C117.268 140.486 117.951 140.726 119.082 141.147Z" fill="black"/>
<path id="Vector_69" d="M89.4075 84.6434C89.4075 84.6434 80.4888 88.2767 80.4039 98.4497C80.3836 105.005 80.7239 111.556 81.4232 118.069C81.4232 118.069 78.875 133.238 86.0949 137.598C93.3147 141.958 100.025 145.591 100.025 145.591C100.025 145.591 111.56 147.589 112.977 148.225C114.393 148.861 119.316 140.686 118.552 139.324C117.788 137.961 107.286 134.6 106.039 132.33C104.792 130.059 101.72 128.529 101.72 128.529C101.72 128.529 98.5878 126.244 98.4621 124.337C98.3364 122.429 99.2605 121.067 99.5221 120.249C99.7837 119.432 100.732 111.439 100.732 111.439C100.732 111.439 105.801 83.0811 89.4075 84.6434Z" fill="#DCE6F2"/>
<path id="Vector_70" opacity="0.1" d="M93.4846 118.324C93.4846 118.324 81.4232 119.777 82.3575 124.318C82.3575 124.318 86.9409 119.737 93.4846 118.324Z" fill="black"/>
<path id="Vector_71" opacity="0.1" d="M93.4846 120.14C93.4846 120.14 86.6385 125.499 87.8956 125.862C89.1527 126.226 93.4846 120.14 93.4846 120.14Z" fill="black"/>
<path id="Vector_72" opacity="0.1" d="M96.5424 122.32C96.5424 122.32 94.5888 126.077 95.693 125.881C96.7972 125.684 96.5424 122.32 96.5424 122.32Z" fill="black"/>
<path id="Vector_73" d="M222.124 40.8339C222.124 40.8339 209.213 40.0019 210.722 49.6881C210.722 49.6881 210.419 51.3994 211.87 52.1769C211.87 52.1769 211.894 51.4502 213.195 51.7009C213.659 51.7843 214.13 51.8087 214.598 51.7736C215.234 51.7283 215.838 51.4615 216.318 51.0142V51.0142C216.318 51.0142 219.95 49.412 221.363 43.0611C221.363 43.0611 222.409 41.6732 222.382 41.3171L220.201 42.3163C220.201 42.3163 220.945 43.9985 220.357 45.3972C220.357 45.3972 220.289 42.378 219.868 42.4471C219.783 42.4471 218.737 43.032 218.737 43.032C218.737 43.032 220.018 45.9604 219.049 48.0931C219.049 48.0931 219.416 44.4817 218.336 43.2427L216.8 44.2019C216.8 44.2019 218.298 47.2284 217.283 49.699C217.283 49.699 217.544 45.9095 216.477 44.4344L215.084 45.5934C215.084 45.5934 216.494 48.58 215.635 50.6291C215.635 50.6291 215.523 46.2184 214.782 45.8841C214.782 45.8841 213.566 47.0322 213.382 47.5045C213.382 47.5045 214.344 49.6845 213.746 50.8144C213.746 50.8144 213.379 47.8751 213.066 47.8606C213.066 47.8606 211.853 49.808 211.727 51.1305C211.786 49.8976 212.146 48.7026 212.77 47.6644C212.071 47.8058 211.426 48.1633 210.915 48.6926C210.915 48.6926 211.102 47.3156 213.069 47.1957C213.069 47.1957 214.089 45.717 214.34 45.6261C214.34 45.6261 212.383 45.4517 211.197 46.0149C211.197 46.0149 212.24 44.7178 214.7 45.2883L216.059 44.0893C216.059 44.0893 213.484 43.726 212.39 44.1293C212.39 44.1293 213.647 42.9812 216.43 43.8168L217.925 42.8613C217.925 42.8613 215.73 42.3526 214.422 42.5379C214.422 42.5379 215.801 41.7422 218.363 42.6033L219.433 42.091C219.433 42.091 217.823 41.7531 217.354 41.6986C216.885 41.6441 216.858 41.5061 216.858 41.5061C217.877 41.3247 218.923 41.4505 219.878 41.8694C219.878 41.8694 222.172 40.9865 222.124 40.8339Z" fill="#6C63FF"/>
<path id="Vector_74" opacity="0.1" d="M261.353 89.2794C261.353 89.2794 248.442 88.4474 249.95 98.1336C249.95 98.1336 249.648 99.8449 251.099 100.622C251.099 100.622 251.122 99.8958 252.427 100.146C252.891 100.23 253.362 100.254 253.83 100.219C254.458 100.17 255.054 99.9053 255.529 99.4634V99.4634C255.529 99.4634 259.165 97.8575 260.578 91.5066C260.578 91.5066 261.621 90.1224 261.58 89.7663L259.399 90.7618C259.399 90.7618 260.143 92.444 259.559 93.8428C259.559 93.8428 259.487 90.8236 259.069 90.8926C258.984 90.8926 257.935 91.4775 257.935 91.4775C257.935 91.4775 259.219 94.4096 258.251 96.5386C258.251 96.5386 258.617 92.9272 257.534 91.6883L256.015 92.6366C256.015 92.6366 257.513 95.663 256.497 98.1336C256.497 98.1336 256.759 94.3442 255.692 92.8691L254.303 94.0317C254.303 94.0317 255.709 97.0146 254.853 99.0637C254.853 99.0637 254.741 94.653 254 94.3187C254 94.3187 252.784 95.4668 252.597 95.9392C252.597 95.9392 253.562 98.1191 252.964 99.249C252.964 99.249 252.597 96.3098 252.284 96.2952C252.284 96.2952 251.071 98.2426 250.946 99.5651C251.006 98.332 251.367 97.1373 251.992 96.099C251.292 96.2408 250.646 96.5982 250.134 97.1272C250.134 97.1272 250.324 95.7502 252.291 95.6303C252.291 95.6303 253.294 94.1516 253.562 94.0608C253.562 94.0608 251.605 93.8864 250.419 94.4495C250.419 94.4495 251.462 93.1525 253.919 93.7411L255.278 92.5421C255.278 92.5421 252.699 92.1788 251.608 92.5821C251.608 92.5821 252.865 91.4339 255.648 92.2696L257.143 91.314C257.143 91.314 254.945 90.809 253.637 90.9907C253.637 90.9907 255.019 90.195 257.581 91.0561L258.651 90.5438C258.651 90.5438 257.041 90.2059 256.569 90.1514C256.097 90.0969 256.073 89.9589 256.073 89.9589C257.093 89.7774 258.14 89.9032 259.097 90.3222C259.097 90.3222 261.393 89.432 261.353 89.2794Z" fill="#6C63FF"/>
<path id="Vector_75" opacity="0.1" d="M182.919 80.6796C182.919 80.6796 185.892 67.2039 176.705 67.1567C176.705 67.1567 175.18 66.5463 174.218 67.9415C174.218 67.9415 174.874 68.0904 174.429 69.4202C174.275 69.8904 174.172 70.3781 174.123 70.8735C174.057 71.5488 174.199 72.2287 174.527 72.81V72.81C174.527 72.81 175.387 76.9155 180.983 79.4879C180.983 79.4879 182.084 80.8249 182.416 80.8394L181.873 78.3725C181.873 78.3725 180.194 78.8702 179.005 78.0091C179.005 78.0091 181.802 78.4488 181.805 78.0091C181.805 77.9183 181.465 76.7157 181.465 76.7157C181.465 76.7157 178.547 77.5659 176.746 76.1816C176.746 76.1816 180.011 77.1844 181.339 76.2579L180.728 74.4704C180.728 74.4704 177.67 75.5349 175.577 74.0417C175.577 74.0417 179.026 74.9645 180.568 74.0925L179.736 72.4285C179.736 72.4285 176.746 73.4022 175.003 72.1487C175.003 72.1487 179.08 72.7809 179.522 72.0615C179.522 72.0615 178.672 70.5828 178.268 70.3067C178.268 70.3067 176.107 70.9534 175.156 70.1287C175.156 70.1287 177.925 70.2413 177.989 69.9288C177.989 69.9288 176.403 68.3193 175.193 67.956C176.32 68.2304 177.361 68.8139 178.214 69.6491C178.201 68.8876 177.982 68.1465 177.582 67.5164C177.582 67.5164 178.818 67.9524 178.601 70.0596C178.601 70.0596 179.79 71.3676 179.828 71.6655C179.828 71.6655 180.32 69.6345 180.004 68.2866C180.004 68.2866 181.023 69.6091 180.062 72.0979L180.932 73.751C180.932 73.751 181.72 71.0987 181.52 69.878C181.52 69.878 182.366 71.3967 181.119 74.187L181.747 75.9273C181.747 75.9273 182.586 73.6965 182.641 72.2941C182.641 72.2941 183.14 73.8854 181.907 76.4396L182.199 77.6531C182.199 77.6531 182.783 76.0145 182.913 75.5277C183.042 75.0408 183.174 75.0372 183.174 75.0372C183.169 76.1425 182.876 77.2244 182.328 78.1617C182.328 78.1617 182.773 80.6977 182.919 80.6796Z" fill="#6C63FF"/>
<path id="Vector_76" opacity="0.1" d="M154.645 85.272C154.645 85.272 144.275 76.9773 140.568 85.9623C140.568 85.9623 139.437 87.2158 140.249 88.7163C140.249 88.7163 140.636 88.1313 141.608 89.1014C141.952 89.4438 142.333 89.7414 142.743 89.9879C143.298 90.3183 143.938 90.4459 144.567 90.3513V90.3513C144.567 90.3513 148.427 91.1469 152.871 86.6744C152.871 86.6744 154.458 86.1294 154.607 85.8097L152.266 85.3701C152.266 85.3701 152.022 87.2121 150.815 88.0369C150.815 88.0369 152.307 85.4718 151.92 85.2865C151.842 85.2466 150.673 85.1049 150.673 85.1049C150.673 85.1049 150.238 88.3094 148.335 89.5192C148.335 89.5192 150.5 86.718 150.231 85.0467L148.454 84.945C148.454 84.945 148.152 88.3566 146.032 89.8244C146.032 89.8244 148.196 86.8125 148.07 84.9523L146.31 85.1049C146.31 85.1049 145.954 88.422 144.183 89.6282C144.183 89.6282 146.354 85.8787 145.909 85.1666C145.909 85.1666 144.302 85.4101 143.905 85.6935C143.905 85.6935 143.596 88.0696 142.508 88.6727C142.508 88.6727 143.715 86.0023 143.47 85.817C143.47 85.817 141.455 86.7289 140.663 87.768C141.348 86.7731 142.264 85.9866 143.32 85.4864C142.663 85.1943 141.941 85.1134 141.241 85.2538C141.241 85.2538 142.104 84.2147 143.81 85.272C143.81 85.272 145.407 84.6289 145.678 84.7088C145.678 84.7088 144.132 83.4118 142.852 83.1865C142.852 83.1865 144.394 82.7142 146.144 84.6398L147.907 84.4472C147.907 84.4472 145.947 82.6306 144.822 82.3254C144.822 82.3254 146.463 82.1038 148.356 84.4363L150.095 84.5199C150.095 84.5199 148.522 82.805 147.336 82.1874C147.336 82.1874 148.896 82.3327 150.595 84.5599L151.753 84.7597C151.753 84.7597 150.581 83.5317 150.214 83.2119C149.847 82.8922 149.898 82.7578 149.898 82.7578C150.843 83.2054 151.654 83.9248 152.239 84.836C152.239 84.836 154.6 85.421 154.645 85.272Z" fill="#6C63FF"/>
<path id="Vector_77" opacity="0.1" d="M189.167 8.20747C189.167 8.20747 178.798 -0.0908368 175.091 8.89778C175.091 8.89778 173.96 10.1512 174.772 11.6518C174.772 11.6518 175.159 11.0668 176.131 12.0369C176.477 12.3775 176.859 12.6738 177.269 12.9198C177.824 13.2504 178.465 13.378 179.094 13.2831V13.2831C179.094 13.2831 182.953 14.0788 187.397 9.60263C187.397 9.60263 188.984 9.06128 189.13 8.73792L186.789 8.30557C186.789 8.30557 186.548 10.1476 185.338 10.9724C185.338 10.9724 186.833 8.4073 186.446 8.222C186.368 8.18204 185.199 8.04034 185.199 8.04034C185.199 8.04034 184.751 11.2521 182.848 12.4547C182.848 12.4547 185.009 9.6535 184.744 7.98221L182.967 7.88048C182.967 7.88048 182.661 11.2921 180.544 12.7563C180.544 12.7563 182.709 9.74433 182.583 7.88411L180.826 8.03671C180.826 8.03671 180.466 11.3575 178.696 12.5637C178.696 12.5637 180.871 8.81422 180.425 8.10211C180.425 8.10211 178.818 8.34553 178.421 8.62892C178.421 8.62892 178.112 11.0051 177.024 11.6082C177.024 11.6082 178.231 8.93775 177.986 8.74882C177.986 8.74882 175.971 9.6644 175.18 10.7035C175.863 9.70753 176.78 8.92079 177.837 8.42183C177.179 8.12756 176.454 8.04669 175.754 8.1893C175.754 8.1893 176.62 7.1502 178.326 8.20747C178.326 8.20747 179.923 7.56075 180.194 7.64432C180.194 7.64432 178.649 6.34726 177.368 6.11836C177.368 6.11836 178.907 5.64967 180.657 7.57166L182.42 7.37909C182.42 7.37909 180.463 5.56248 179.335 5.25365C179.335 5.25365 180.976 5.03566 182.872 7.36819L184.611 7.44812C184.611 7.44812 183.038 5.73324 181.849 5.11922C181.849 5.11922 183.412 5.26455 185.111 7.49172L186.266 7.69155C186.266 7.69155 185.09 6.47805 184.723 6.16559C184.356 5.85313 184.407 5.71507 184.407 5.71507C185.353 6.16217 186.163 6.88174 186.748 7.79328C186.748 7.79328 189.11 8.34553 189.167 8.20747Z" fill="#6C63FF"/>
<path id="Vector_78" opacity="0.1" d="M228.79 18.7184C228.79 18.7184 224.645 5.5988 216.827 10.7544C216.827 10.7544 215.23 11.1177 215.105 12.8289C215.105 12.8289 215.733 12.5819 216.012 13.9625C216.115 14.4536 216.272 14.9303 216.477 15.3831C216.758 15.9925 217.216 16.4883 217.782 16.7964V16.7964C217.782 16.7964 220.541 19.7938 226.575 18.802C226.575 18.802 228.168 19.3179 228.461 19.1399L226.762 17.3559C226.762 17.3559 225.586 18.7257 224.152 18.6712C224.152 18.6712 226.745 17.4649 226.531 17.0762C226.487 16.9999 225.6 16.1751 225.6 16.1751C225.6 16.1751 223.541 18.5476 221.332 18.3914C221.332 18.3914 224.597 17.3959 225.263 15.8481L223.857 14.6891C223.857 14.6891 221.798 17.3123 219.273 17.2324C219.273 17.2324 222.671 16.0661 223.531 14.453L222.002 13.512C222.002 13.512 219.963 16.0298 217.85 15.9499C217.85 15.9499 221.628 14.1805 221.638 13.3231C221.638 13.3231 220.187 12.5492 219.708 12.5419C219.708 12.5419 218.193 14.3113 216.99 14.1514C216.99 14.1514 219.396 12.68 219.294 12.3784C219.294 12.3784 217.153 11.9097 215.947 12.2876C217.038 11.8814 218.209 11.7875 219.345 12.0151C218.957 11.3753 218.403 10.8702 217.751 10.5618C217.751 10.5618 219.015 10.2312 219.861 12.135C219.861 12.135 221.519 12.5746 221.696 12.8035C221.696 12.8035 221.112 10.8016 220.177 9.83515C220.177 9.83515 221.696 10.3838 222.11 13.0397L223.667 13.948C223.667 13.948 223.024 11.2557 222.25 10.3147C222.25 10.3147 223.721 11.1286 224.04 14.1987L225.433 15.3213C225.433 15.3213 225.046 12.9525 224.394 11.7244C224.394 11.7244 225.603 12.7926 225.821 15.6592L226.667 16.5239C226.667 16.5239 226.354 14.8018 226.225 14.3149C226.096 13.8281 226.201 13.7954 226.201 13.7954C226.741 14.7379 227.027 15.8218 227.027 16.9272C227.027 16.9272 228.671 18.8129 228.79 18.7184Z" fill="#6C63FF"/>
<path id="Vector_79" opacity="0.1" d="M201.739 19.3651C201.739 19.3651 188.862 17.8319 189.925 27.6017C189.925 27.6017 189.541 29.2948 190.944 30.145C190.944 30.145 191.002 29.4183 192.303 29.7453C192.763 29.8511 193.233 29.9011 193.703 29.8943C194.339 29.882 194.953 29.6486 195.453 29.2294V29.2294C195.453 29.2294 199.16 27.8233 200.889 21.556C200.889 21.556 201.997 20.2299 201.973 19.8702L199.748 20.7494C199.748 20.7494 200.427 22.4679 199.748 23.834C199.748 23.834 199.819 20.8148 199.408 20.862C199.323 20.862 198.249 21.3852 198.249 21.3852C198.249 21.3852 199.391 24.3826 198.324 26.4718C198.324 26.4718 198.861 22.8821 197.838 21.5887L196.258 22.4607C196.258 22.4607 197.617 25.5671 196.479 27.9795C196.479 27.9795 196.921 24.2082 195.925 22.6787L194.481 23.7686C194.481 23.7686 195.745 26.8242 194.79 28.8261C194.79 28.8261 194.889 24.4153 194.165 24.0411C194.165 24.0411 192.895 25.1311 192.687 25.5816C192.687 25.5816 193.547 27.7979 192.898 28.906C192.898 28.906 192.67 25.9522 192.371 25.9231C192.371 25.9231 191.067 27.8015 190.876 29.1276C190.994 27.8982 191.411 26.7232 192.086 25.7197C191.381 25.8239 190.72 26.1459 190.183 26.6461C190.183 26.6461 190.435 25.2837 192.405 25.2692C192.405 25.2692 193.476 23.8486 193.764 23.7723C193.764 23.7723 191.818 23.4925 190.605 23.9903C190.605 23.9903 191.709 22.7477 194.135 23.4707L195.565 22.348C195.565 22.348 192.98 21.7885 191.886 22.1518C191.886 22.1518 193.197 21.0619 195.935 22.061L197.475 21.1854C197.475 21.1854 195.304 20.5605 193.989 20.6731C193.989 20.6731 195.405 19.9465 197.923 20.9529L199.017 20.4987C199.017 20.4987 197.424 20.0736 196.955 19.9937C196.486 19.9138 196.469 19.7757 196.469 19.7757C197.496 19.6497 198.536 19.8308 199.472 20.2989C199.472 20.2989 201.762 19.5177 201.739 19.3651Z" fill="#6C63FF"/>
<path id="Vector_80" opacity="0.1" d="M314.403 126.244C314.403 126.244 301.532 124.711 302.596 134.47C302.596 134.47 302.212 136.163 303.615 137.013C303.615 137.013 303.673 136.286 304.974 136.61C305.434 136.719 305.904 136.769 306.374 136.759C307.01 136.748 307.625 136.514 308.124 136.094V136.094C308.124 136.094 311.831 134.688 313.543 128.424C313.543 128.424 314.651 127.094 314.627 126.738L312.401 127.614C312.401 127.614 313.081 129.336 312.401 130.702C312.401 130.702 312.473 127.679 312.062 127.73C311.977 127.73 310.903 128.249 310.903 128.249C310.903 128.249 312.045 131.247 310.978 133.336C310.978 133.336 311.515 129.75 310.492 128.453L308.912 129.329C308.912 129.329 310.271 132.435 309.136 134.847C309.136 134.847 309.575 131.076 308.579 129.543L307.135 130.633C307.135 130.633 308.399 133.688 307.444 135.687C307.444 135.687 307.543 131.276 306.819 130.905C306.819 130.905 305.552 131.995 305.341 132.446C305.341 132.446 306.204 134.662 305.552 135.77C305.552 135.77 305.324 132.816 305.025 132.787C305.025 132.787 303.72 134.666 303.53 135.992C303.648 134.762 304.065 133.587 304.74 132.584C304.034 132.686 303.372 133.008 302.837 133.51C302.837 133.51 303.089 132.144 305.059 132.13C305.059 132.13 306.133 130.709 306.418 130.637C306.418 130.637 304.471 130.353 303.258 130.851C303.258 130.851 304.363 129.612 306.792 130.335L308.219 129.212C308.219 129.212 305.664 128.696 304.553 129.052C304.553 129.052 305.864 127.962 308.603 128.958L310.142 128.086C310.142 128.086 307.971 127.461 306.656 127.574C306.656 127.574 308.073 126.847 310.59 127.853L311.684 127.396C311.684 127.396 310.091 126.971 309.622 126.894C309.153 126.818 309.136 126.676 309.136 126.676C310.163 126.548 311.203 126.728 312.14 127.196C312.14 127.196 314.437 126.4 314.403 126.244Z" fill="#6C63FF"/>
<path id="Vector_81" opacity="0.1" d="M334.078 139.098C334.078 139.098 321.208 137.569 322.271 147.324C322.271 147.324 321.891 149.017 323.291 149.867C323.291 149.867 323.348 149.141 324.65 149.468C325.108 149.574 325.577 149.623 326.046 149.613C326.678 149.599 327.29 149.367 327.789 148.952V148.952C327.789 148.952 331.492 147.546 333.205 141.278C333.205 141.278 334.316 139.952 334.289 139.592L332.063 140.468C332.063 140.468 332.743 142.19 332.063 143.556C332.063 143.556 332.134 140.537 331.723 140.584C331.638 140.584 330.565 141.104 330.565 141.104C330.565 141.104 331.706 144.101 330.64 146.19C330.64 146.19 331.176 142.604 330.154 141.311L328.574 142.183C328.574 142.183 329.933 145.289 328.798 147.702C328.798 147.702 329.236 143.931 328.241 142.401L326.797 143.491C326.797 143.491 328.061 146.546 327.109 148.548C327.109 148.548 327.205 144.134 326.481 143.763C326.481 143.763 325.214 144.853 325.003 145.304C325.003 145.304 325.866 147.52 325.214 148.628C325.214 148.628 324.986 145.674 324.687 145.645C324.687 145.645 323.382 147.524 323.195 148.85C323.313 147.621 323.729 146.446 324.402 145.442C323.697 145.546 323.035 145.868 322.499 146.368C322.499 146.368 322.754 145.002 324.724 144.991C324.724 144.991 325.795 143.571 326.083 143.495C326.083 143.495 324.137 143.215 322.924 143.713C322.924 143.713 324.028 142.47 326.457 143.193L327.884 142.07C327.884 142.07 325.329 141.554 324.218 141.91C324.218 141.91 325.53 140.82 328.268 141.82L329.807 140.944C329.807 140.944 327.636 140.319 326.321 140.432C326.321 140.432 327.738 139.705 330.256 140.711L331.35 140.257C331.35 140.257 329.756 139.832 329.291 139.752C328.825 139.672 328.801 139.534 328.801 139.534C329.829 139.408 330.868 139.589 331.805 140.058C331.805 140.058 334.112 139.255 334.078 139.098Z" fill="#6C63FF"/>
<path id="Vector_82" opacity="0.1" d="M290.395 30.8244C290.395 30.8244 280.026 22.5297 276.319 31.5147C276.319 31.5147 275.188 32.7681 276 34.2687C276 34.2687 276.387 33.6837 277.359 34.6538C277.703 34.9962 278.084 35.2938 278.493 35.5403C279.048 35.8705 279.689 35.998 280.318 35.9036V35.9036C280.318 35.9036 284.178 36.6993 288.625 32.2268C288.625 32.2268 290.208 31.6818 290.358 31.3621L288.024 30.9116C288.024 30.9116 287.779 32.7536 286.573 33.5783C286.573 33.5783 288.064 31.0133 287.677 30.828C287.599 30.788 286.434 30.6463 286.434 30.6463C286.434 30.6463 285.995 33.8508 284.093 35.0607C284.093 35.0607 286.257 32.2595 285.988 30.5882L284.212 30.4865C284.212 30.4865 283.909 33.8981 281.789 35.3659C281.789 35.3659 283.957 32.354 283.828 30.4937L282.068 30.6463C282.068 30.6463 281.728 33.9635 279.941 35.1697C279.941 35.1697 282.115 31.4202 281.667 30.7081C281.667 30.7081 280.06 30.9515 279.662 31.2349C279.662 31.2349 279.356 33.611 278.269 34.2142C278.269 34.2142 279.472 31.5437 279.227 31.3584C279.227 31.3584 277.213 32.2704 276.421 33.3095C277.106 32.3146 278.022 31.5281 279.078 31.0278C278.421 30.7357 277.698 30.6549 276.999 30.7953C276.999 30.7953 277.865 29.7562 279.57 30.8135C279.57 30.8135 281.164 30.1704 281.436 30.2503C281.436 30.2503 279.89 28.9532 278.609 28.728C278.609 28.728 280.151 28.2557 281.901 30.1813L283.665 29.9887C283.665 29.9887 281.708 28.1721 280.58 27.8669C280.58 27.8669 282.221 27.6453 284.113 29.9778L285.856 30.0614C285.856 30.0614 284.28 28.3465 283.094 27.7288C283.094 27.7288 284.657 27.8742 286.352 30.1013L287.511 30.3012C287.511 30.3012 286.338 29.0731 285.971 28.7534C285.605 28.4337 285.659 28.3283 285.659 28.3283C286.603 28.7766 287.412 29.496 287.996 30.4065C287.996 30.4065 290.351 30.9733 290.395 30.8244Z" fill="#6C63FF"/>
<path id="Vector_83" opacity="0.1" d="M298.407 90.7073C298.407 90.7073 294.832 77.3988 286.794 82.1765C286.794 82.1765 285.183 82.4417 284.983 84.1638C284.983 84.1638 285.622 83.9495 285.842 85.341C285.924 85.8409 286.061 86.3287 286.25 86.7943C286.502 87.4204 286.939 87.941 287.494 88.2767V88.2767C287.494 88.2767 290.123 91.4012 296.191 90.7037C296.191 90.7037 297.761 91.2922 298.06 91.1324L296.453 89.2649C296.453 89.2649 295.22 90.5801 293.793 90.4566C293.793 90.4566 296.429 89.3666 296.225 88.9779C296.185 88.8979 295.335 88.0296 295.335 88.0296C295.335 88.0296 293.181 90.304 290.98 90.0388C290.98 90.0388 294.285 89.2031 295.013 87.699L293.653 86.4709C293.653 86.4709 291.486 88.9924 288.968 88.7962C288.968 88.7962 292.393 87.7898 293.337 86.2239L291.849 85.2102C291.849 85.2102 289.692 87.6263 287.599 87.4446C287.599 87.4446 291.448 85.8569 291.496 85.0031C291.496 85.0031 290.076 84.1602 289.597 84.1311C289.597 84.1311 288.01 85.8242 286.804 85.6062C286.804 85.6062 289.271 84.251 289.182 83.9458C289.182 83.9458 287.062 83.3754 285.842 83.6915C286.947 83.3412 288.118 83.3049 289.24 83.5862C288.881 82.9287 288.349 82.3983 287.711 82.0602C287.711 82.0602 288.989 81.7877 289.75 83.7315C289.75 83.7315 291.384 84.2474 291.554 84.4872C291.554 84.4872 291.054 82.4562 290.161 81.4498C290.161 81.4498 291.656 82.0675 291.958 84.7415L293.473 85.7261C293.473 85.7261 292.943 83.0012 292.21 82.042C292.21 82.042 293.643 82.9249 293.837 86.0059L295.196 87.194C295.196 87.194 294.907 84.8106 294.309 83.5607C294.309 83.5607 295.475 84.687 295.57 87.5573L296.378 88.4656C296.378 88.4656 296.141 86.7289 296.039 86.2348C295.937 85.7407 296.039 85.6716 296.039 85.6716C296.541 86.638 296.783 87.7351 296.735 88.8398C296.735 88.8398 298.284 90.7945 298.407 90.7073Z" fill="#6C63FF"/>
<path id="Vector_84" opacity="0.1" d="M218.76 120.696C218.76 120.696 211.819 109.004 205.374 116.002C205.374 116.002 203.899 116.729 204.158 118.454C204.158 118.454 204.718 118.055 205.296 119.326C205.503 119.777 205.761 120.199 206.064 120.583C206.469 121.108 207.024 121.476 207.644 121.63V121.63C207.644 121.63 210.99 123.839 216.63 121.339C216.63 121.339 218.292 121.434 218.536 121.19L216.498 119.882C216.498 119.882 215.658 121.517 214.255 121.826C214.255 121.826 216.504 120.009 216.202 119.675C216.144 119.61 215.098 119.036 215.098 119.036C215.098 119.036 213.627 121.862 211.445 122.273C211.445 122.273 214.398 120.474 214.704 118.81L213.076 118.044C213.076 118.044 211.66 121.114 209.193 121.677C209.193 121.677 212.217 119.682 212.709 117.895L211.011 117.372C211.011 117.372 209.577 120.34 207.521 120.794C207.521 120.794 210.797 118.113 210.616 117.277C210.616 117.277 209.033 116.896 208.578 117.012C208.578 117.012 207.501 119.116 206.285 119.268C206.285 119.268 208.296 117.226 208.129 116.957C208.129 116.957 205.945 117.048 204.858 117.72C205.827 117.049 206.945 116.66 208.099 116.594C207.582 116.071 206.934 115.721 206.234 115.588C206.234 115.588 207.385 114.945 208.612 116.58C208.612 116.58 210.311 116.58 210.545 116.761C210.545 116.761 209.526 114.945 208.408 114.265C208.408 114.265 210.005 114.411 210.997 116.885L212.713 117.372C212.713 117.372 211.486 114.919 210.532 114.218C210.532 114.218 212.139 114.632 213.134 117.535L214.738 118.262C214.738 118.262 213.834 116.064 212.927 115.035C212.927 115.035 214.34 115.762 215.186 118.491L216.205 119.119C216.205 119.119 215.526 117.524 215.285 117.085C215.044 116.645 215.139 116.543 215.139 116.543C215.874 117.32 216.393 118.3 216.637 119.374C216.637 119.374 218.669 120.82 218.76 120.696Z" fill="#6C63FF"/>
<path id="Vector_85" d="M264.38 60.9584C264.38 60.9584 257.778 49.045 251.129 55.8246C251.129 55.8246 249.634 56.5149 249.845 58.2371C249.845 58.2371 250.412 57.852 250.956 59.1418C251.15 59.6003 251.396 60.0321 251.686 60.4279C252.077 60.9637 252.621 61.3469 253.236 61.5179V61.5179C253.236 61.5179 256.514 63.8359 262.226 61.5179C262.226 61.5179 263.884 61.6669 264.135 61.4307L262.141 60.0573C262.141 60.0573 261.257 61.6596 259.844 61.9248C259.844 61.9248 262.144 60.17 261.855 59.8394C261.794 59.7703 260.768 59.1599 260.768 59.1599C260.768 59.1599 259.216 61.9394 257.031 62.2773C257.031 62.2773 260.034 60.5769 260.384 58.9274L258.781 58.1208C258.781 58.1208 257.276 61.1473 254.792 61.6305C254.792 61.6305 257.873 59.7376 258.417 57.9682L256.739 57.3869C256.739 57.3869 255.217 60.2935 253.151 60.6932C253.151 60.6932 256.501 58.1208 256.345 57.2816C256.345 57.2816 254.775 56.8456 254.306 56.9473C254.306 56.9473 253.168 59.0146 251.948 59.1272C251.948 59.1272 254.017 57.158 253.861 56.8819C253.861 56.8819 251.673 56.9001 250.569 57.5359C251.558 56.8979 252.686 56.5472 253.841 56.5186C253.338 55.9785 252.699 55.6072 252.002 55.4504C252.002 55.4504 253.175 54.8437 254.381 56.5186C254.381 56.5186 256.08 56.5803 256.307 56.7656C256.307 56.7656 255.346 54.949 254.245 54.2006C254.245 54.2006 255.835 54.3968 256.756 56.9037L258.454 57.4487C258.454 57.4487 257.303 54.9563 256.365 54.2224C256.365 54.2224 257.962 54.6911 258.872 57.6231L260.452 58.4115C260.452 58.4115 259.613 56.1843 258.753 55.1416C258.753 55.1416 260.143 55.9155 260.914 58.6695L261.91 59.3307C261.91 59.3307 261.271 57.7139 261.047 57.267C260.823 56.8201 260.918 56.722 260.918 56.722C261.63 57.5225 262.12 58.5187 262.334 59.5996C262.334 59.5996 264.281 61.0783 264.38 60.9584Z" fill="#6C63FF"/>
<path id="Vector_86" d="M222.613 86.0095C222.613 86.0095 222.953 72.1669 213.96 74.118C213.96 74.118 212.349 73.8528 211.67 75.4296C211.67 75.4296 212.349 75.4296 212.159 76.8284C212.097 77.3271 212.09 77.832 212.139 78.3325C212.2 79.0114 212.469 79.6498 212.903 80.1491C212.903 80.1491 214.524 83.9786 220.507 85.2793C220.507 85.2793 221.835 86.3511 222.168 86.2929L221.149 83.9967C221.149 83.9967 219.603 84.8469 218.275 84.2692C218.275 84.2692 221.095 84.0912 221.016 83.6479C221.016 83.5571 220.432 82.4526 220.432 82.4526C220.432 82.4526 217.734 83.9241 215.713 82.9576C215.713 82.9576 219.11 83.2301 220.221 82.0348L219.273 80.4253C219.273 80.4253 216.494 82.1256 214.15 81.1228C214.15 81.1228 217.7 81.2754 219.046 80.0874L217.914 78.6341C217.914 78.6341 215.173 80.24 213.229 79.3898C213.229 79.3898 217.347 79.1246 217.646 78.3216C217.646 78.3216 216.532 77.0609 216.083 76.8683C216.083 76.8683 214.092 77.9583 213.005 77.3697C213.005 77.3697 215.723 76.8829 215.74 76.5595C215.74 76.5595 213.882 75.3278 212.628 75.237C213.784 75.2591 214.914 75.6049 215.906 76.2398C215.752 75.4971 215.397 74.819 214.887 74.2887C214.887 74.2887 216.182 74.445 216.358 76.5413C216.358 76.5413 217.775 77.5659 217.867 77.8493C217.867 77.8493 217.965 75.7529 217.398 74.5031C217.398 74.5031 218.648 75.5749 218.179 78.2199L219.345 79.6514C219.345 79.6514 219.61 76.8829 219.185 75.7311C219.185 75.7311 220.3 77.0355 219.613 80.0365L220.554 81.6024C220.554 81.6024 220.955 79.2372 220.741 77.8457C220.741 77.8457 221.529 79.299 220.809 82.0638L221.326 83.1902C221.326 83.1902 221.587 81.4571 221.621 80.9521C221.655 80.4471 221.784 80.4144 221.784 80.4144C221.989 81.4982 221.908 82.6215 221.55 83.6588C221.55 83.6588 222.464 86.0568 222.613 86.0095Z" fill="#6C63FF"/>
<path id="Vector_87" opacity="0.1" d="M237.481 261.902C242.534 261.902 246.631 261.161 246.631 260.249C246.631 259.336 242.534 258.595 237.481 258.595C232.428 258.595 228.331 259.336 228.331 260.249C228.331 261.161 232.428 261.902 237.481 261.902Z" fill="#6C63FF"/>
<path id="Vector_88" opacity="0.1" d="M204.127 287C209.18 287 213.277 286.26 213.277 285.347C213.277 284.434 209.18 283.694 204.127 283.694C199.074 283.694 194.977 284.434 194.977 285.347C194.977 286.26 199.074 287 204.127 287Z" fill="#6C63FF"/>
<path id="Vector_89" opacity="0.1" d="M31.6451 274.142C36.6984 274.142 40.7948 273.402 40.7948 272.489C40.7948 271.576 36.6984 270.836 31.6451 270.836C26.5919 270.836 22.4954 271.576 22.4954 272.489C22.4954 273.402 26.5919 274.142 31.6451 274.142Z" fill="#6C63FF"/>
<path id="Vector_90" opacity="0.1" d="M273.526 285.347C278.579 285.347 282.676 284.607 282.676 283.694C282.676 282.781 278.579 282.041 273.526 282.041C268.473 282.041 264.376 282.781 264.376 283.694C264.376 284.607 268.473 285.347 273.526 285.347Z" fill="#6C63FF"/>
<path id="Vector_91" d="M283.053 265.19C290.598 265.19 296.715 264.084 296.715 262.719C296.715 261.355 290.598 260.249 283.053 260.249C275.508 260.249 269.391 261.355 269.391 262.719C269.391 264.084 275.508 265.19 283.053 265.19Z" fill="#6C63FF"/>
<path id="Vector_92" d="M288.717 258.675C289.34 258.133 289.794 257.401 290.018 256.575C290.188 255.74 289.855 254.741 289.111 254.435C288.275 254.094 287.382 254.711 286.702 255.336C286.022 255.961 285.251 256.677 284.364 256.546C284.82 256.104 285.16 255.543 285.353 254.919C285.546 254.294 285.585 253.627 285.465 252.982C285.427 252.715 285.321 252.463 285.159 252.255C284.694 251.725 283.855 251.954 283.298 252.372C281.531 253.701 281.038 256.266 281.028 258.577C280.851 257.745 281.001 256.877 280.997 256.034C280.994 255.191 280.773 254.217 280.097 253.774C279.682 253.527 279.213 253.401 278.738 253.411C277.943 253.382 277.056 253.465 276.516 254.087C275.837 254.857 276.017 256.154 276.601 256.993C277.185 257.832 278.079 258.374 278.901 258.962C279.559 259.383 280.121 259.955 280.546 260.637C280.594 260.732 280.634 260.832 280.664 260.935H285.645C286.76 260.335 287.794 259.574 288.717 258.675V258.675Z" fill="#6C63FF"/>
<path id="Vector_93" d="M25.5023 264.805C25.5023 264.805 30.7176 264.634 32.2975 263.435C33.8773 262.236 40.326 260.808 40.7167 262.73C41.1074 264.652 48.5583 272.282 42.6669 272.333C36.7755 272.384 28.978 271.352 27.4083 270.327C25.8387 269.303 25.5023 264.805 25.5023 264.805Z" fill="#A8A8A8"/>
<path id="Vector_94" opacity="0.2" d="M42.7654 271.664C36.874 271.715 29.0766 270.683 27.5069 269.659C26.3109 268.881 25.8353 266.087 25.6756 264.797H25.5023C25.5023 264.797 25.8421 269.299 27.4015 270.32C28.961 271.341 36.7687 272.376 42.6601 272.325C44.3589 272.325 44.9467 271.664 44.9161 270.705C44.6783 271.29 44.0293 271.653 42.7654 271.664Z" fill="black"/>
</g>
<defs>
<linearGradient id="paint0_linear" x1="75.7628" y1="157.472" x2="181.812" y2="157.472" gradientUnits="userSpaceOnUse">
<stop stop-color="#808080" stop-opacity="0.25"/>
<stop offset="0.54" stop-color="#808080" stop-opacity="0.12"/>
<stop offset="1" stop-color="#808080" stop-opacity="0.1"/>
</linearGradient>
<clipPath id="clip0">
<rect width="343" height="287" fill="white"/>
</clipPath>
</defs>
</svg>
