<svg id="Capa_1" enable-background="new 0 0 512 512" height="512" viewBox="0 0 512 512" width="512" xmlns="http://www.w3.org/2000/svg"><g><path d="m277.52 234.481-21.213-21.213-251.911 251.908c-5.861 5.863-5.861 15.35 0 21.213l10.609 10.607 10.605 10.605c5.861 5.863 15.35 5.863 21.213 0l251.91-251.908z" fill="#3b4a51"/><path d="m46.823 507.602 251.91-251.908-21.213-21.213-262.515 262.516 10.605 10.605c5.862 5.863 15.35 5.863 21.213 0z" fill="#293939"/><g><path d="m269.814 47.872-7.768-28.982c-2.144-8.007 2.6-16.231 10.607-18.375s16.21 2.6 18.375 10.607l7.769 28.982c2.144 8.007-2.6 16.231-10.607 18.375-8.07 2.149-16.253-2.677-18.376-10.607z" fill="#fed843"/></g><g><path d="m355.226 366.63-7.768-28.982c-2.144-8.007 2.6-16.231 10.607-18.375 7.996-2.154 16.221 2.61 18.375 10.607l7.768 28.982c2.144 8.007-2.6 16.231-10.607 18.375-8.069 2.149-16.252-2.677-18.375-10.607z" fill="#fabe2c"/></g><g><path d="m134.766 138.401c2.144-8.007 10.368-12.751 18.375-10.607l28.982 7.769c7.976 2.134 12.74 10.358 10.607 18.375-2.144 8.007-10.368 12.751-18.375 10.607l-28.982-7.769c-7.919-2.12-12.76-10.293-10.607-18.375z" fill="#fed843"/></g><g><path d="m453.524 223.813c2.144-8.007 10.368-12.751 18.375-10.607l28.982 7.769c7.965 2.123 12.751 10.368 10.607 18.375s-10.368 12.751-18.375 10.607l-28.982-7.769c-7.919-2.119-12.76-10.293-10.607-18.375z" fill="#fabe2c"/></g><path d="m461.012 50.99c-5.861-5.863-15.35-5.863-21.213 0l-21.213 21.213c-5.863 5.863-5.863 15.352 0 21.213 5.863 5.863 15.35 5.863 21.213 0l21.213-21.213c5.863-5.864 5.863-15.35 0-21.213z" fill="#fed843"/><path d="m439.799 93.415 21.213-21.213c5.863-5.863 5.863-15.35 0-21.213l-42.426 42.426c5.863 5.863 15.35 5.863 21.213 0z" fill="#fabe2c"/><path d="m482.505 146.17c-1.584-5.936-6.639-10.307-12.709-11.01l-83.049-9.902v-.002l-9.902-83.049c-.716-6.081-5.076-11.125-11.012-12.709-5.934-1.586-12.222.601-15.899 5.5l-50.09 66.974-76.868-32.948c-5.645-2.415-12.18-1.161-16.522 3.179-4.34 4.34-5.592 10.876-3.179 16.522l32.948 76.866-66.974 50.092c-4.9 3.677-7.084 9.965-5.5 15.899 1.586 5.936 6.639 10.285 12.709 11.01l83.051 9.902 9.902 83.051c.729 6.156 5.176 11.153 11.01 12.709 5.934 1.584 12.222-.601 15.899-5.5l50.092-66.974 76.866 32.948c5.645 2.413 12.182 1.161 16.522-3.179s5.594-10.876 3.181-16.522l-32.95-76.866 66.974-50.092c4.899-3.677 7.086-9.965 5.5-15.899z" fill="#fed843"/><path d="m280.421 348.254c5.934 1.584 12.222-.601 15.899-5.5l50.092-66.974 76.866 32.948c5.645 2.413 12.182 1.161 16.522-3.179s5.594-10.876 3.181-16.522l-32.95-76.866 66.974-50.092c4.9-3.677 7.086-9.965 5.5-15.899-1.584-5.936-6.639-10.307-12.709-11.01l-83.049-9.902v-.002l-127.239 127.238 9.902 83.051c.729 6.156 5.177 11.153 11.011 12.709z" fill="#fabe2c"/></g></svg>