<svg height="511pt" viewBox="-77 1 511 511.99901" width="511pt" xmlns="http://www.w3.org/2000/svg"><path d="m338.695312 463.007812h-289.890624c-22.527344 0-40.792969-18.265624-40.792969-40.796874v-373.902344c0-22.53125 18.265625-40.796875 40.792969-40.796875h289.890624c6.074219 0 11 4.925781 11 11v433.496093c0 6.074219-4.925781 11-11 11zm0 0" fill="#005ca0"/><path d="m338.679688 7.511719h-40.25c6.082031 0 11.015624 4.929687 11.015624 11.015625v433.464844c0 6.082031-4.933593 11.015624-11.015624 11.015624h40.25c6.082031 0 11.015624-4.933593 11.015624-11.015624v-433.464844c0-6.085938-4.933593-11.015625-11.015624-11.015625zm0 0" fill="#005182"/><path d="m338.695312 463.007812h-289.890624c-22.527344 0-40.792969-18.265624-40.792969-40.796874v-9.839844c0-22.53125 18.265625-40.796875 40.792969-40.796875h300.890624v80.433593c0 6.074219-4.925781 11-11 11zm0 0" fill="#fad200"/><path d="m214.277344 407.429688h-156.289063c-4.148437 0-7.511719-3.363282-7.511719-7.511719 0-4.148438 3.363282-7.511719 7.511719-7.511719h156.289063c4.148437 0 7.511718 3.363281 7.511718 7.511719 0 4.148437-3.363281 7.511719-7.511718 7.511719zm0 0" fill="#fab700"/><path d="m308.382812 407.429688h-58.816406c-4.148437 0-7.511718-3.363282-7.511718-7.511719 0-4.148438 3.363281-7.511719 7.511718-7.511719h58.816406c4.148438 0 7.511719 3.363281 7.511719 7.511719 0 4.148437-3.363281 7.511719-7.511719 7.511719zm0 0" fill="#fab700"/><g fill="#ea9a94"><path d="m84.152344 278.503906c10.78125 0 12.1875-8.25 12.375-12.75.09375-2.347656-.46875-3.097656-2.625-3.097656h-7.222656c-3 0-3.75-2.71875-3.75-5.34375s.84375-5.25 3.75-5.25h13.320312c6.84375 0 8.53125 3 8.71875 8.0625.65625 16.128906-5.8125 29.351562-24.097656 29.351562-19.222656 0-26.632813-15.097656-26.632813-33.851562 0-19.128906 7.035157-32.726562 26.164063-33.757812 13.125 0 21.285156 6.09375 23.441406 17.160156.5625 3-.65625 5.625-5.4375 5.625-5.25 0-6.847656-1.03125-7.5-3.46875-1.410156-5.34375-4.222656-8.34375-10.503906-8.34375-11.722656 0-13.316406 12.9375-13.316406 22.785156-.003907 8.25 1.3125 22.878906 13.316406 22.878906zm0 0"/><path d="m131.5 266.03125c0 7.128906 3.941406 12.285156 11.253906 12.285156s11.347656-5.15625 11.347656-12.285156v-39.195312c0-3.375 3.09375-4.316407 6.1875-4.316407s6.191407.941407 6.191407 4.316407v38.070312c0 17.441406-9.847657 24.664062-23.726563 24.664062-13.785156 0-23.628906-7.222656-23.628906-24.664062v-38.070312c0-3.375 3.09375-4.316407 6.1875-4.316407s6.191406.941407 6.191406 4.316407v39.195312zm0 0"/><path d="m191.132812 284.976562c0 3.46875-3.1875 4.40625-6.28125 4.40625s-6.1875-.9375-6.1875-4.40625v-58.140624c0-3.375 3.09375-4.316407 6.1875-4.316407s6.28125.941407 6.28125 4.316407zm0 0"/><path d="m212.511719 288.539062c-4.785157 0-9.191407-1.21875-9.191407-8.347656v-49.042968c0-7.03125 4.40625-8.25 9.191407-8.25h12.941406c18.472656 0 25.972656 15.378906 25.972656 32.820312s-7.3125 32.820312-25.972656 32.820312zm3.1875-52.796874v39.855468c0 1.21875.5625 1.59375 1.59375 1.59375h8.160156c10.503906 0 13.222656-12.285156 13.222656-21.472656 0-9.191406-3-21.570312-13.222656-21.570312h-8.160156c-1.03125 0-1.59375.375-1.59375 1.59375zm0 0"/><path d="m273.273438 235.742188v13.222656h19.035156c3.09375 0 3.9375 2.8125 3.9375 5.625s-.84375 5.628906-3.9375 5.628906h-19.035156v15.472656c0 1.21875.46875 1.59375 1.59375 1.59375h20.910156c3.1875 0 3.941406 2.8125 3.941406 5.625s-.84375 5.625-3.941406 5.625h-25.785156c-4.691407 0-9.191407-1.21875-9.191407-8.25v-49.140625c0-7.03125 4.5-8.25 9.191407-8.25h25.785156c3.09375 0 3.941406 2.8125 3.941406 5.625s-.75 5.625-3.941406 5.625h-20.910156c-1.125.003907-1.59375.378907-1.59375 1.597657zm0 0"/></g><path d="m163.273438 105.65625c0 33.179688-26.898438 60.078125-60.078126 60.078125-33.179687 0-60.078124-26.898437-60.078124-60.078125 0-33.183594 26.898437-60.082031 60.078124-60.082031 33.179688 0 60.078126 26.898437 60.078126 60.082031zm0 0" fill="#ffded5"/><path d="m315.203125 105.65625c0 33.179688-26.898437 60.078125-60.078125 60.078125-33.183594 0-60.082031-26.898437-60.082031-60.078125 0-33.183594 26.898437-60.082031 60.082031-60.082031 33.179688 0 60.078125 26.898437 60.078125 60.082031zm0 0" fill="#ffded5"/><path d="m103.195312 45.574219c-3.425781 0-6.777343.304687-10.046874.855469 28.394531 4.785156 50.03125 29.46875 50.03125 59.226562 0 29.753906-21.636719 54.441406-50.03125 59.226562 3.269531.550782 6.621093.851563 10.046874.851563 33.179688 0 60.078126-26.898437 60.078126-60.078125 0-33.183594-26.898438-60.082031-60.078126-60.082031zm0 0" fill="#f4ada5"/><path d="m255.125 45.574219c-3.425781 0-6.78125.304687-10.050781.855469 28.394531 4.785156 50.03125 29.46875 50.03125 59.226562 0 29.753906-21.636719 54.441406-50.03125 59.226562 3.269531.550782 6.625.851563 10.050781.851563 33.179688 0 60.078125-26.898437 60.078125-60.078125 0-33.183594-26.898437-60.082031-60.078125-60.082031zm0 0" fill="#f4ada5"/><path d="m101.121094 134.351562c-1.921875 0-3.84375-.730468-5.3125-2.199218l-25.871094-25.871094c-2.933594-2.933594-2.933594-7.6875 0-10.621094s7.691406-2.933594 10.621094 0l20.5625 20.5625 60.917968-60.921875c2.933594-2.933593 7.691407-2.933593 10.625 0 2.929688 2.933594 2.929688 7.691407 0 10.621094l-66.230468 66.230469c-1.46875 1.46875-3.390625 2.199218-5.3125 2.199218zm0 0" fill="#1dc2ff"/><path d="m265.820312 106.972656 21.464844-21.464844c2.929688-2.933593 2.929688-7.6875 0-10.621093-2.9375-2.933594-7.691406-2.933594-10.625 0l-21.460937 21.464843-21.464844-21.464843c-2.933594-2.933594-7.6875-2.933594-10.621094 0-2.933593 2.933593-2.933593 7.6875 0 10.621093l21.464844 21.464844-21.464844 21.464844c-2.933593 2.929688-2.933593 7.6875 0 10.621094 1.46875 1.464844 3.390625 2.199218 5.3125 2.199218s3.84375-.734374 5.308594-2.199218l21.464844-21.464844 21.460937 21.464844c1.46875 1.464844 3.390625 2.199218 5.3125 2.199218s3.84375-.734374 5.3125-2.199218c2.929688-2.933594 2.929688-7.691406 0-10.621094zm0 0" fill="#ed500a"/><path d="m80.558594 95.660156c-2.933594-2.933594-7.6875-2.933594-10.621094 0s-2.933594 7.6875 0 10.621094l25.871094 25.871094c1.46875 1.464844 3.390625 2.199218 5.3125 2.199218s3.84375-.730468 5.308594-2.199218l66.230468-66.230469c2.933594-2.933594 2.933594-7.6875 0-10.621094-2.933594-2.933593-7.6875-2.933593-10.621094 0l-6.996093 7c-8.628907-10.328125-20.183594-17.890625-33.269531-21.632812-17.359376-4.960938-35.613282-2.867188-51.394532 5.898437-15.785156 8.765625-27.207031 23.152344-32.167968 40.511719-10.242188 35.832031 10.574218 73.320313 46.410156 83.5625 6.183594 1.769531 12.414062 2.609375 18.550781 2.609375 29.40625 0 56.535156-19.371094 65.011719-49.019531 1.316406-4.609375 2.144531-9.347657 2.464844-14.085938.074218-1.089843.113281-2.683593.113281-4.492187 0-4.144532-3.359375-7.507813-7.511719-7.507813-4.148438 0-7.507812 3.363281-7.507812 7.507813 0 1.4375-.03125 2.734375-.082032 3.480468-.25 3.6875-.894531 7.378907-1.921875 10.96875-7.964843 27.871094-37.121093 44.0625-64.992187 36.097657-27.867188-7.96875-44.0625-37.125-36.09375-64.992188 3.855468-13.5 12.742187-24.691406 25.019531-31.507812 12.273437-6.816407 26.46875-8.449219 39.96875-4.589844 10.617187 3.035156 19.929687 9.300781 26.722656 17.867187l-43.242187 43.242188zm0 0"/><path d="m265.820312 106.972656 21.464844-21.464844c2.929688-2.933593 2.929688-7.6875 0-10.621093-2.9375-2.933594-7.691406-2.933594-10.625 0l-21.460937 21.464843-21.464844-21.464843c-2.933594-2.933594-7.6875-2.933594-10.621094 0-2.933593 2.933593-2.933593 7.6875 0 10.621093l21.464844 21.464844-21.464844 21.464844c-2.933593 2.929688-2.933593 7.6875 0 10.621094 1.46875 1.464844 3.390625 2.199218 5.3125 2.199218s3.84375-.734374 5.308594-2.199218l21.464844-21.464844 21.460937 21.464844c1.46875 1.464844 3.390625 2.199218 5.3125 2.199218s3.84375-.734374 5.3125-2.199218c2.929688-2.933594 2.929688-7.691406 0-10.621094zm0 0"/><path d="m309.445312 371.574219v66.609375c0 5.53125-4.484374 10.015625-10.015624 10.015625h-282.039063c7.492187 9.042969 18.808594 14.808593 31.472656 14.808593h289.816407c6.082031 0 11.015624-4.933593 11.015624-11.015624v-80.417969zm0 0" fill="#fab700"/><path d="m107.054688 504.488281-25.023438-18.300781-25.027344 18.300781v-75.304687h50.050782zm0 0" fill="#ff6914"/><path d="m82.03125 429.183594v57.003906l25.023438 18.300781v-75.304687zm0 0" fill="#ed500a"/><path d="m308.382812 436.691406h-271.429687c-4.148437 0-7.511719-3.363281-7.511719-7.507812 0-4.148438 3.363282-7.511719 7.511719-7.511719h271.429687c4.148438 0 7.511719 3.363281 7.511719 7.511719 0 4.144531-3.363281 7.507812-7.511719 7.507812zm0 0" fill="#fab700"/><path d="m84.152344 278.503906c10.78125 0 12.1875-8.25 12.375-12.75.09375-2.347656-.46875-3.097656-2.625-3.097656h-7.222656c-3 0-3.75-2.71875-3.75-5.34375s.84375-5.25 3.75-5.25h13.320312c6.84375 0 8.53125 3 8.71875 8.0625.65625 16.128906-5.8125 29.351562-24.097656 29.351562-19.222656 0-26.632813-15.097656-26.632813-33.851562 0-19.128906 7.035157-32.726562 26.164063-33.757812 13.125 0 21.285156 6.09375 23.441406 17.160156.5625 3-.65625 5.625-5.4375 5.625-5.25 0-6.847656-1.03125-7.5-3.46875-1.410156-5.34375-4.222656-8.34375-10.503906-8.34375-11.722656 0-13.316406 12.9375-13.316406 22.785156-.003907 8.25 1.3125 22.878906 13.316406 22.878906zm0 0"/><path d="m131.5 266.03125c0 7.128906 3.941406 12.285156 11.253906 12.285156s11.347656-5.15625 11.347656-12.285156v-39.195312c0-3.375 3.09375-4.316407 6.1875-4.316407s6.191407.941407 6.191407 4.316407v38.070312c0 17.441406-9.847657 24.664062-23.726563 24.664062-13.785156 0-23.628906-7.222656-23.628906-24.664062v-38.070312c0-3.375 3.09375-4.316407 6.1875-4.316407s6.191406.941407 6.191406 4.316407v39.195312zm0 0"/><path d="m191.132812 284.976562c0 3.46875-3.1875 4.40625-6.28125 4.40625s-6.1875-.9375-6.1875-4.40625v-58.140624c0-3.375 3.09375-4.316407 6.1875-4.316407s6.28125.941407 6.28125 4.316407zm0 0"/><path d="m212.511719 288.539062c-4.785157 0-9.191407-1.21875-9.191407-8.347656v-49.042968c0-7.03125 4.40625-8.25 9.191407-8.25h12.941406c18.472656 0 25.972656 15.378906 25.972656 32.820312s-7.3125 32.820312-25.972656 32.820312zm3.1875-52.796874v39.855468c0 1.21875.5625 1.59375 1.59375 1.59375h8.160156c10.503906 0 13.222656-12.285156 13.222656-21.472656 0-9.191406-3-21.570312-13.222656-21.570312h-8.160156c-1.03125 0-1.59375.375-1.59375 1.59375zm0 0"/><path d="m273.273438 235.742188v13.222656h19.035156c3.09375 0 3.9375 2.8125 3.9375 5.625s-.84375 5.628906-3.9375 5.628906h-19.035156v15.472656c0 1.21875.46875 1.59375 1.59375 1.59375h20.910156c3.1875 0 3.941406 2.8125 3.941406 5.625s-.84375 5.625-3.941406 5.625h-25.785156c-4.691407 0-9.191407-1.21875-9.191407-8.25v-49.140625c0-7.03125 4.5-8.25 9.191407-8.25h25.785156c3.09375 0 3.941406 2.8125 3.941406 5.625s-.75 5.625-3.941406 5.625h-20.910156c-1.125.003907-1.59375.378907-1.59375 1.597657zm0 0"/><path d="m357.207031 371.574219v-352.910157c0-10.289062-8.375-18.664062-18.667969-18.664062h-289.15625c-26.953124 0-48.882812 21.929688-48.882812 48.882812v372.753907c0 26.953125 21.925781 48.878906 48.882812 48.878906h.109376v33.972656c0 2.828125 1.589843 5.417969 4.109374 6.699219 2.523438 1.277344 5.554688 1.03125 7.835938-.636719l20.589844-15.058593 20.59375 15.058593c1.3125.960938 2.867187 1.449219 4.433594 1.449219 1.160156 0 2.324218-.269531 3.398437-.8125 2.523437-1.28125 4.113281-3.871094 4.113281-6.699219v-33.972656h223.972656c10.292969 0 18.664063-8.371094 18.664063-18.664063v-43.886718c0-4.148438-3.363281-7.511719-7.511719-7.511719-4.148437 0-7.511718 3.363281-7.511718 7.511719v43.886718c0 2.011719-1.632813 3.644532-3.644532 3.644532h-223.96875v-18.804688h193.816406c4.148438 0 7.511719-3.363281 7.511719-7.507812 0-4.148438-3.363281-7.511719-7.511719-7.511719h-271.429687c-4.148437 0-7.511719 3.363281-7.511719 7.511719 0 4.144531 3.363282 7.507812 7.511719 7.507812h12.539063v18.804688h-.109376c-18.671874 0-33.863281-15.191406-33.863281-33.859375v-8.691407c0-18.671874 15.191407-33.859374 33.863281-33.859374h300.3125c4.148438 0 7.511719-3.363282 7.511719-7.511719zm-257.660156 65.117187v53l-13.082031-9.566406c-1.320313-.964844-2.878906-1.449219-4.433594-1.449219-1.558594 0-3.117188.484375-4.4375 1.449219l-13.082031 9.566406v-53zm-84.023437-58.949218v-328.859376c0-18.671874 15.1875-33.863281 33.859374-33.863281h289.15625c2.011719 0 3.644532 1.636719 3.644532 3.644531v345.398438h-292.800782c-13.136718 0-25.070312 5.21875-33.859374 13.679688zm0 0"/><path d="m57.988281 392.40625c-4.148437 0-7.511719 3.363281-7.511719 7.511719 0 4.148437 3.363282 7.511719 7.511719 7.511719h156.289063c4.148437 0 7.511718-3.363282 7.511718-7.511719 0-4.148438-3.363281-7.511719-7.511718-7.511719zm0 0"/><path d="m249.566406 392.40625c-4.148437 0-7.511718 3.363281-7.511718 7.511719 0 4.148437 3.363281 7.511719 7.511718 7.511719h58.816406c4.148438 0 7.511719-3.363282 7.511719-7.511719 0-4.148438-3.363281-7.511719-7.511719-7.511719zm0 0"/><path d="m255.121094 173.242188c-37.265625 0-67.585938-30.320313-67.585938-67.585938 0-37.269531 30.320313-67.589844 67.585938-67.589844 37.269531 0 67.589844 30.320313 67.589844 67.589844 0 37.265625-30.320313 67.585938-67.589844 67.585938zm0-120.15625c-28.984375 0-52.566406 23.582031-52.566406 52.566406 0 28.988281 23.582031 52.570312 52.566406 52.570312 28.988281 0 52.570312-23.582031 52.570312-52.570312 0-28.984375-23.582031-52.566406-52.570312-52.566406zm0 0"/></svg>