<svg id="Layer_1" enable-background="new 0 0 512 512" height="480" viewBox="0 0 512 512" width="512" xmlns="http://www.w3.org/2000/svg">
    <g>
        <g>
            <g>
                <circle cx="256" cy="256" fill="#ffc136" r="256" />
            </g>
        </g>
        <path d="m487.657 146.944-51.449-51.449-360.416 321.01 71.152 71.152c33.087 15.604 70.049 24.343 109.056 24.343 141.385 0 256-114.615 256-256 0-39.007-8.739-75.969-24.343-109.056z" fill="#f4a300" />
        <g>
            <g>
                <path d="m96.356 196.95h324.852v209.686h-324.852z" fill="#f4f2ef" />
            </g>
            <g>
                <path d="m256 196.95h165.21v209.69h-165.21z" fill="#d8d5d2" />
            </g>
            <path d="m46.539 249.573h203.67v104.036h-203.67z" fill="#46f7d5" transform="matrix(0 -1 1 0 -153.218 449.965)" />
            <g>
                <path d="m96.356 117.973h319.289v81.784h-319.289z" fill="#46f7d5" />
            </g>
            <g>
                <g>
                    <path d="m256 117.97h159.64v81.79h-159.64z" fill="#1aaa8e" />
                </g>
            </g>
            <path d="m96.356 117.973h104.036v81.784h-104.036z" fill="#f9710d" />
            <path d="m75.792 95.495v321.01h109.6 141.216 109.6v-321.01zm330.416 30v59.262h-79.6v-59.262zm-220.816 126.58h-79.6v-37.318h79.6zm30-37.318h81.216v37.318h-81.216zm-30 67.318v37.319h-79.6v-37.319zm30 0h81.216v37.319h-81.216zm111.216 0h79.6v37.319h-79.6zm0-30v-37.318h79.6v37.318zm-30-126.58v59.262h-81.216v-59.262zm-111.216 0v59.262h-79.6v-59.262zm-79.6 261.01v-37.11h79.6v37.11zm109.6 0v-37.11h81.216v37.11zm111.216 0v-37.11h79.6v37.11z" fill="#655665" />
            <path d="m256 95.5v30h40.61v59.26h-40.61v30h40.61v37.32h-40.61v30h40.61v37.31h-40.61v30h40.61v37.11h-40.61v30h180.21v-321zm150.21 30v59.26h-79.6v-59.26zm-79.6 193.89v-37.31h79.6v37.31zm79.6 30v37.11h-79.6v-37.11zm-79.6-97.31v-37.32h79.6v37.32z" fill="#493e49" />
        </g>
    </g>
</svg>