<?xml version="1.0" encoding="iso-8859-1"?>
<!-- Generator: Adobe Illustrator 19.0.0, SVG Export Plug-In . SVG Version: 6.00 Build 0)  -->
<svg version="1.1" id="Capa_1" xmlns="http://www.w3.org/2000/svg" xmlns:xlink="http://www.w3.org/1999/xlink" x="0px" y="0px"
	 viewBox="0 0 512 512" style="enable-background:new 0 0 512 512;" xml:space="preserve">
<path style="fill:#72A3FC;" d="M507.606,84.394l-80-80C424.793,1.581,420.978,0,417,0H15C6.716,0,0,6.716,0,15v482
	c0,8.284,6.716,15,15,15h482c8.284,0,15-6.716,15-15V95C512,91.022,510.419,87.207,507.606,84.394z"/>
<path style="fill:#2892FC;" d="M507.606,84.394l-80-80C424.793,1.581,420.978,0,417,0H256v512h241c8.284,0,15-6.716,15-15V95
	C512,91.022,510.419,87.207,507.606,84.394z"/>
<path style="fill:#F9F9F9;" d="M406,242H106c-8.284,0-15,6.716-15,15v255h330V257C421,248.716,414.284,242,406,242z"/>
<path style="fill:#DFE4EA;" d="M421,257c0-8.284-6.716-15-15-15H256v270h165V257z"/>
<g>
	<path style="fill:#FAD557;" d="M346,452H166c-8.284,0-15-6.716-15-15s6.716-15,15-15h180c8.284,0,15,6.716,15,15
		S354.284,452,346,452z"/>
	<path style="fill:#FAD557;" d="M346,332H166c-8.284,0-15-6.716-15-15s6.716-15,15-15h180c8.284,0,15,6.716,15,15
		S354.284,332,346,332z"/>
	<path style="fill:#FAD557;" d="M346,392H166c-8.284,0-15-6.716-15-15s6.716-15,15-15h180c8.284,0,15,6.716,15,15
		S354.284,392,346,392z"/>
</g>
<path style="fill:#5458EA;" d="M361,0H91v145c0,8.284,6.716,15,15,15h240c8.284,0,15-6.716,15-15V0z"/>
<path style="fill:#3545E3;" d="M256,0v160h90c8.284,0,15-6.716,15-15V0H256z"/>
<g>
	<path style="fill:#FCB12B;" d="M346,422h-90v30h90c8.284,0,15-6.716,15-15S354.284,422,346,422z"/>
	<path style="fill:#FCB12B;" d="M346,302h-90v30h90c8.284,0,15-6.716,15-15S354.284,302,346,302z"/>
	<path style="fill:#FCB12B;" d="M346,362h-90v30h90c8.284,0,15-6.716,15-15S354.284,362,346,362z"/>
</g>
<g>
</g>
<g>
</g>
<g>
</g>
<g>
</g>
<g>
</g>
<g>
</g>
<g>
</g>
<g>
</g>
<g>
</g>
<g>
</g>
<g>
</g>
<g>
</g>
<g>
</g>
<g>
</g>
<g>
</g>
</svg>
